<?xml version="1.0" encoding="utf-8"?>
<!-- Generator: Adobe Illustrator 19.0.0, SVG Export Plug-In . SVG Version: 6.00 Build 0)  -->
<svg version="1.1" id="Layer_1" xmlns="http://www.w3.org/2000/svg" xmlns:xlink="http://www.w3.org/1999/xlink" x="0px" y="0px"
	 viewBox="0 0 1366 768" style="enable-background:new 0 0 1366 768;" xml:space="preserve">
<style type="text/css">
	.st0{display:none;}
	.st1{display:inline;fill:#D6AF43;}
	.st2{display:inline;}
	.st3{fill:#8E744C;}
	.st4{fill:#9E8057;}
	.st5{fill:#684C27;}
	.st6{fill:#E5CF88;}
	.st7{fill:#DDC06C;}
	.st8{fill:#D6AF43;}
	.st9{fill:#EDD9A6;}
	.st10{fill:none;}
	.st11{fill:#7C4D1E;}
	.st12{fill:#A86F2C;}
	.st13{display:inline;fill:url(#XMLID_21_);}
	.st14{display:inline;fill:url(#XMLID_106_);}
	.st15{display:inline;fill:url(#XMLID_115_);}
	.st16{display:inline;fill:url(#XMLID_124_);}
	.st17{display:inline;fill:#008043;}
	.st18{display:inline;fill:#E9560D;}
	.st19{fill:#E9560D;}
	.st20{fill:url(#XMLID_126_);}
	.st21{fill:url(#XMLID_127_);}
	.st22{fill:url(#XMLID_132_);}
	.st23{fill:url(#XMLID_133_);}
	.st24{fill:url(#XMLID_135_);}
</style>
<g id="monuments" class="st0">
	<path id="XMLID_47_" class="st1" d="M888.1,634.1C888.1,634.1,888.1,634.1,888.1,634.1C888.1,634.1,888.1,634.1,888.1,634.1
		L888.1,634.1z"/>
	<polygon id="XMLID_85_" class="st1" points="891,634 891,634 890.5,634.1 890.5,634.1 890,634.2 890,634 	"/>
	<path id="XMLID_57_" class="st1" d="M891.2,634C891.2,634,891.1,634,891.2,634C891.1,634,891.1,634,891.2,634
		C891.1,634,891.1,634,891.2,634c-0.1,0-0.1,0-0.1,0L891.2,634C891.1,634,891.1,634,891.2,634z"/>
	<g id="XMLID_22_" class="st2">
		<g id="XMLID_38_">
			<path id="XMLID_36_" class="st3" d="M820.4,541.6c0.1-13.7-10.9-24.9-24.6-25c-13.7-0.1-24.9,10.9-25,24.6l-44.7-0.3l0.3-36.3
				l69.5,0.5l69.5,0.5l-0.3,36.3L820.4,541.6z"/>
			
				<rect id="XMLID_35_" x="722.8" y="491.8" transform="matrix(1 7.720874e-003 -7.720874e-003 1 3.8412 -6.1304)" class="st4" width="146.1" height="5.3"/>
			<path id="XMLID_18_" class="st3" d="M859.5,628.5"/>
			<path id="XMLID_405_" class="st3" d="M840.3,623C840.3,623,840.3,623,840.3,623l-0.1,0C840.3,623,840.3,623,840.3,623z"/>
			<path id="XMLID_407_" class="st3" d="M867,567.9l0,4.4l0,18.5v0.2l-0.2,13.3l0,0.7c0,0,0.1,0,0.1,0c0,0,0.1,0.1,0.1,0.2v0.2
				c0,0.1-0.1,0.1-0.1,0.2l0.1,1.1v16.8l-0.1,0.4l-0.2,0.8l0,0.1l-0.7,3v1.3c-0.9-0.2-1.8-0.4-2.7-0.6c-0.8-0.2-1.6-0.3-2.3-0.5
				c-0.1,0-0.2,0-0.3-0.1c-0.8-0.2-1.6-0.4-2.4-0.5c0,0-0.1,0-0.1,0c-1.8-0.4-3.6-0.9-5.4-1.3c-2.7-0.7-5.4-1.3-8-2
				c-1.3-0.4-2.6-0.7-3.9-1.1h-0.3c0,0-0.1,0-0.1,0c-0.9-0.2-1.7-0.5-2.5-0.7c-2.6-0.8-5-1.5-7.4-2.3c0,0-0.1,0-0.1,0
				c-1.9-0.6-3.7-1.2-5.3-1.8c-1.8-0.6-3.5-1.3-5-2v-48.9c0,0,0,0,0,0v-20.8l9.4,0.1l14.1,0.1l23.5,0.2l-0.1,18.6L867,567.9
				L867,567.9z"/>
			<path id="XMLID_270_" class="st5" d="M869,629.8c-0.5-0.1-1.1-0.2-1.6-0.3c-0.5-0.1-0.9-0.2-1.3-0.3c-0.9-0.2-1.8-0.4-2.7-0.6
				c-0.8-0.2-1.6-0.3-2.3-0.5l2.1-0.1l0.1,0h4.9l0.8,0L869,629.8z"/>
			<path id="XMLID_271_" class="st5" d="M869,630.1c-0.2,0-0.4-0.1-0.6-0.1h0C868.6,630,868.7,630,869,630.1c0-0.1,0-0.1,0-0.1
				L869,630.1z"/>
			<path id="XMLID_84_" class="st4" d="M840.2,623l-0.2,0L840.2,623C840.2,623,840.2,623,840.2,623z"/>
			<path id="XMLID_279_" class="st4" d="M840.3,623C840.3,623,840.3,623,840.3,623l-0.1,0C840.3,623,840.3,623,840.3,623z"/>
			<path id="XMLID_283_" class="st4" d="M868,624l0,4v0.1l-0.7-0.1H866v0l-2.7,0h-2.6c-0.8-0.2-1.6-0.4-2.4-0.5c0,0-0.1,0-0.1,0
				c-1.8-0.4-3.6-0.9-5.4-1.3c-2.7-0.7-5.4-1.3-8-2c-1.3-0.4-2.6-0.7-3.9-1.1h3.7l2.3,0.5l5.2,0.5H868z"/>
			
				<rect id="XMLID_31_" x="825.1" y="567.8" transform="matrix(1 7.718008e-003 -7.718008e-003 1 4.4241 -6.521)" class="st4" width="44" height="4.4"/>
			
				<rect id="XMLID_30_" x="824.4" y="565.3" transform="matrix(1 7.717547e-003 -7.717547e-003 1 4.3973 -6.521)" class="st5" width="45.4" height="2.5"/>
			<path id="XMLID_313_" class="st5" d="M868,616.4l0,7.4l-1,0.2h-15.1l-7.5-1h-4.1c0,0-0.1,0-0.1,0h0.2c-3.5-1-6.9-2-10-3
				c-1.9-0.6-3.8-1.3-5.5-1.9l-0.1-2l1.3,0l3.1,0h0l12.5,0l8,0h0.3l9,0.2l5.5-0.1l0.8-0.1h0.2l1.3,0.2l0.2,0L868,616.4z"/>
			
				<rect id="XMLID_28_" x="826.2" y="609" transform="matrix(1 7.716828e-003 -7.716828e-003 1 4.7525 -6.5053)" class="st4" width="38.3" height="7.2"/>
			
				<rect id="XMLID_27_" x="827.8" y="572.1" transform="matrix(1 7.718004e-003 -7.718004e-003 1 4.5831 -6.5083)" class="st5" width="35.5" height="36.9"/>
			
				<rect id="XMLID_26_" x="825.9" y="546.8" transform="matrix(1 7.723105e-003 -7.723105e-003 1 4.3193 -6.4993)" class="st4" width="35.5" height="18.4"/>
			
				<rect id="XMLID_25_" x="826.1" y="530.4" transform="matrix(1 7.722894e-003 -7.722894e-003 1 4.1652 -6.5009)" class="st4" width="35.5" height="11.4"/>
			<path id="XMLID_297_" class="st3" d="M770.7,546.1l-0.4,49.4c-2.6-1.3-5.2-2.6-7.8-3.9c-12.3-6.4-24.2-13-35.4-19.6
				c-0.4-0.2-0.8-0.5-1.2-0.7l-2.3-3l1,1.6l-1-3l0-2.5l0.1-18.6L770.7,546.1z"/>
			<polyline id="XMLID_23_" class="st4" points="722,566.8 722,566.8 724,566.8 765.6,567.1 765.5,571.5 762.7,571.5 727,570.2 
				726,571.2 			"/>
			<polygon id="XMLID_20_" class="st5" points="720.9,564.3 766.3,564.6 766.3,567.1 721.9,566.8 			"/>
			<path id="XMLID_266_" class="st5" d="M762.7,571.5l-0.2,20c-12.3-6.4-24.2-13-35.4-19.6l0-0.7L762.7,571.5z"/>
			
				<rect id="XMLID_16_" x="729.4" y="546" transform="matrix(-1 -7.719069e-003 7.719069e-003 -1 1490.0837 1116.2905)" class="st4" width="35.5" height="18.4"/>
			
				<rect id="XMLID_15_" x="729.6" y="529.6" transform="matrix(-1 -7.724170e-003 7.724170e-003 -1 1490.5426 1076.4109)" class="st4" width="35.5" height="11.4"/>
			
				<rect id="XMLID_14_" x="818.2" y="541.8" transform="matrix(1 7.717711e-003 -7.717711e-003 1 4.2252 -6.4955)" class="st5" width="51.1" height="4.9"/>
			
				<rect id="XMLID_13_" x="721.8" y="541" transform="matrix(-1 -7.718450e-003 7.718450e-003 -1 1490.4435 1092.6876)" class="st5" width="51.1" height="4.9"/>
			<circle id="XMLID_12_" class="st4" cx="847.1" cy="519.6" r="7.4"/>
			<circle id="XMLID_11_" class="st4" cx="745.4" cy="518.8" r="7.4"/>
			
				<rect id="XMLID_10_" x="724.9" y="497.1" transform="matrix(1 7.719283e-003 -7.719283e-003 1 3.8918 -6.1286)" class="st5" width="141.9" height="8.1"/>
			
				<rect id="XMLID_9_" x="726.5" y="476.2" transform="matrix(1 7.719633e-003 -7.719633e-003 1 3.7601 -6.1304)" class="st3" width="139.1" height="15.6"/>
			
				<rect id="XMLID_8_" x="733.6" y="465.2" transform="matrix(1 7.720878e-003 -7.720878e-003 1 3.658 -6.1325)" class="st4" width="124.9" height="11"/>
			
				<rect id="XMLID_7_" x="744.3" y="449.9" transform="matrix(1 7.719200e-003 -7.719200e-003 1 3.5557 -6.1324)" class="st3" width="103.7" height="15.2"/>
			
				<rect id="XMLID_6_" x="746.5" y="440.3" transform="matrix(1 7.719802e-003 -7.719802e-003 1 3.46 -6.134)" class="st4" width="99.5" height="9.6"/>
			
				<rect id="XMLID_5_" x="767.8" y="436.4" transform="matrix(1 7.718802e-003 -7.718802e-003 1 3.4075 -6.1338)" class="st3" width="57.1" height="3.9"/>
			
				<rect id="XMLID_3_" x="771.4" y="433.1" transform="matrix(1 7.718429e-003 -7.718429e-003 1 3.3796 -6.1338)" class="st5" width="50" height="3.3"/>
		</g>
		<path id="XMLID_1_" class="st6" d="M861.1,591.8l6.2,37.7c17.2,6,32.1,5.5,32.1,5.5l5.9-0.6l-8.2-48.7L861.1,591.8z"/>
		<g id="XMLID_56_">
			<path id="XMLID_119_" class="st7" d="M1038.7,571.1c0.7-0.5,1.3-1.2,1.7-2c1.1-2.4-2.5-6.3-2.5-6.3s-5.3,0.1-6.3,2.5
				c-0.4,0.9-0.5,1.8-0.3,2.6L1038.7,571.1z"/>
			<g id="XMLID_116_">
				<path id="XMLID_118_" class="st8" d="M1029.1,575.4c0,0,2-4.7,2.4-5.6c0.4-0.9,1-0.3,1.4-0.6c0,0.5,0.9,0.5,0.5,1.4
					c-0.4,0.9-2.4,5.6-2.4,5.6L1029.1,575.4z"/>
				<path id="XMLID_117_" class="st8" d="M1032.8,577c0,0,2-4.7,2.4-5.6c0.4-0.9,1-0.3,1.4-0.6c0,0.5,0.9,0.5,0.5,1.4
					c-0.4,0.9-2.4,5.6-2.4,5.6L1032.8,577z"/>
			</g>
			<path id="XMLID_292_" class="st9" d="M950,566v68.1c-2.2,0.3-4.4,0.6-6.6,0.8c-4.7,0.5-9.4,0.9-14,1h-15.8
				c-4.6-0.2-9.2-0.5-13.7-0.9c-0.2,0-0.3,0-0.4,0c-0.8-0.1-1.6-0.2-2.5-0.3V566H950z"/>
			<path id="XMLID_114_" class="st7" d="M950.3,566.5c3-4.8,4.7-10.4,4.7-16.5c0-17.2-31.1-31.1-31.1-31.1s-31.1,13.9-31.1,31.1
				c0,6.1,1.7,11.7,4.7,16.5H950.3z"/>
			<path id="XMLID_113_" class="st8" d="M908.6,629.9c0,0,0-10.9,0-25.2c0-14.3,12.5-9.7,15.2-16.7c2.7,7,15.2,2.4,15.2,16.7
				c0,14.3,0,25.2,0,25.2H908.6z"/>
			<path id="XMLID_112_" class="st9" d="M907.6,528.5c5.1-0.3,10.6-0.5,16.2-0.5c5.6,0,11.1,0.2,16.2,0.5c-8-5.9-16.2-9.6-16.2-9.6
				S915.6,522.5,907.6,528.5z"/>
			<circle id="XMLID_111_" class="st8" cx="923.8" cy="516.6" r="2.3"/>
			<circle id="XMLID_110_" class="st8" cx="923.8" cy="512" r="2.3"/>
			<circle id="XMLID_109_" class="st8" cx="923.8" cy="507.4" r="2.3"/>
			<path id="XMLID_108_" class="st6" d="M986.2,591.2l-4.9,35.8l0,0.3c-1.1,0.3-2.2,0.6-3.2,0.9c-2.4,0.7-4.9,1.3-7.3,1.8
				c-0.4,0.1-0.8,0.2-1.3,0.3c-2.9,0.7-5.7,1.2-8.6,1.8c-3.2,0.6-6.4,1.1-9.6,1.5c-0.4,0.1-0.7,0.1-1.1,0.1c-0.1,0-0.2,0-0.3,0v0.3
				c-2.2,0.3-4.4,0.6-6.6,0.8l0-0.4L950,587l0.1-0.7l0.2,0l3.4,0.5L970,589L986.2,591.2z"/>
			<path id="XMLID_107_" class="st8" d="M951,614.1c0,0,0.6-4.4,1.4-10.1c0.8-5.7,5.5-3.2,7-5.8c0.7,2.9,5.9,1.8,5.1,7.5
				c-0.8,5.7-1.4,10.1-1.4,10.1L951,614.1z"/>
			<path id="XMLID_263_" class="st8" d="M961.9,624.8c-0.4,2.9-0.8,5.4-1,7.3c-3.2,0.6-6.4,1.1-9.6,1.5l-1.3-0.2l-1.6-0.2
				c0,0,0.6-4.4,1.4-10.1c0.1-0.4,0.1-0.7,0.2-1c1.2-4.4,5.4-2.3,6.8-4.8C957.5,620.3,962.7,619.1,961.9,624.8z"/>
			<path id="XMLID_105_" class="st8" d="M971.4,616.9c0,0,1.2-8.5,1.7-12.3c0.5-3.8,3.7-2.1,4.7-3.9c0.5,2,4,1.2,3.4,5
				c-0.5,3.8-1.7,12.3-1.7,12.3L971.4,616.9z"/>
			<path id="XMLID_39_" class="st8" d="M978.5,624.8c-0.1,0.9-0.3,2-0.4,3.2c0,0.1,0,0.1,0,0.2c-2.4,0.7-4.9,1.3-7.3,1.8
				c-0.4,0.1-0.8,0.2-1.3,0.3c0.3-2.4,0.7-4.9,0.9-6.6c0.5-3.8,3.7-2.1,4.7-3.9C975.5,621.8,979,621,978.5,624.8z"/>
			
				<rect id="XMLID_103_" x="954.4" y="576.1" transform="matrix(0.9908 0.1356 -0.1356 0.9908 87.84 -125.1965)" class="st9" width="16.5" height="11.8"/>
			<path id="XMLID_102_" class="st7" d="M971.6,577.3c1.1-1.4,1.9-3,2.2-4.9c0.7-5.3-8.3-10.9-8.3-10.9s-10.2,3-10.9,8.3
				c-0.3,1.9,0,3.7,0.8,5.3L971.6,577.3z"/>
			<g id="XMLID_99_">
				<path id="XMLID_101_" class="st8" d="M956.1,584.8c0,0,0.6-4.2,0.8-6.1c0.3-1.9,1.8-1.1,2.3-1.9c0.2,1,2,0.6,1.7,2.5
					c-0.3,1.9-0.8,6.1-0.8,6.1L956.1,584.8z"/>
				<path id="XMLID_100_" class="st8" d="M964.2,585.9c0,0,0.6-4.2,0.8-6.1c0.3-1.9,1.8-1.1,2.3-1.9c0.2,1,2,0.6,1.7,2.5
					c-0.3,1.9-0.8,6.1-0.8,6.1L964.2,585.9z"/>
			</g>
			
				<rect id="XMLID_98_" x="1008.2" y="582.7" transform="matrix(0.9177 0.3974 -0.3974 0.9177 316.1282 -353.6002)" class="st6" width="6.1" height="6.6"/>
			<path id="XMLID_97_" class="st7" d="M1015.3,584.2c0.5-0.4,1-0.9,1.3-1.5c0.8-1.8-1.9-4.7-1.9-4.7s-3.9,0-4.7,1.9
				c-0.3,0.6-0.4,1.3-0.3,2L1015.3,584.2z"/>
			<g id="XMLID_94_">
				<path id="XMLID_96_" class="st8" d="M1008.2,587.4c0,0,1.5-3.5,1.8-4.2c0.3-0.6,0.8-0.2,1-0.5c0,0.4,0.6,0.4,0.4,1.1
					c-0.3,0.6-1.8,4.2-1.8,4.2L1008.2,587.4z"/>
				<path id="XMLID_95_" class="st8" d="M1011,588.6c0,0,1.5-3.5,1.8-4.2c0.3-0.6,0.8-0.2,1-0.5c0,0.4,0.6,0.4,0.4,1.1
					c-0.3,0.6-1.8,4.2-1.8,4.2L1011,588.6z"/>
			</g>
			<path id="XMLID_262_" class="st6" d="M1012.4,592.6l-7.8,19.4l-0.9,2.2l-2.6,6.4c-3.9,1.5-7.7,3-11.6,4.2l6.5-14v0l0.9-2.1
				l8.8-19L1012.4,592.6z"/>
			
				<rect id="XMLID_92_" x="1003.9" y="588.9" transform="matrix(0.9177 0.3974 -0.3974 0.9177 317.5889 -352.5521)" class="st8" width="11.1" height="2.3"/>
			
				<rect id="XMLID_91_" x="994.7" y="610.2" transform="matrix(0.9177 0.3974 -0.3974 0.9177 325.3037 -347.1259)" class="st8" width="11.1" height="2.3"/>
			
				<rect id="XMLID_89_" x="1029.1" y="569.1" transform="matrix(0.9177 0.3974 -0.3974 0.9177 312.971 -363.3377)" class="st6" width="8.2" height="8.8"/>
			<path id="XMLID_268_" class="st6" d="M1034.7,582.3l-10.5,26.1l-0.7,1.8l-0.1,0.3l-0.3,0.7l-0.6-0.3l-0.2-0.1
				c-2.5,1.3-4.9,2.5-7.4,3.7c-0.5,0.3-1.1,0.5-1.6,0.8c-0.9,0.4-1.8,0.8-2.8,1.3c0,0-0.1,0-0.2,0.1c-0.9,0.4-1.9,0.8-2.8,1.2
				l5.2-11.1l1.3-2.8l11.8-25.5L1034.7,582.3z"/>
			
				<rect id="XMLID_87_" x="1023.4" y="577.4" transform="matrix(0.9177 0.3974 -0.3974 0.9177 314.9462 -361.9422)" class="st8" width="14.9" height="3.1"/>
			<polygon id="XMLID_80_" class="st8" points="1025.7,609.1 1024.2,608.4 1013.9,604 1012.2,603.2 1011,606.1 1012.6,606.8 
				1022.2,610.9 1022.4,611 1023,611.3 1023.3,610.6 			"/>
			<path id="XMLID_286_" class="st6" d="M879,632C879,632,879,632,879,632L879,632L879,632C879,632,879,632,879,632L879,632
				C879,632,879,632,879,632L879,632z"/>
			<path id="XMLID_314_" class="st10" d="M887.9,634C888,634,888,634,887.9,634L887.9,634L887.9,634C888,634,888,634,887.9,634
				L887.9,634l0.1,0"/>
			<polyline id="XMLID_32_" class="st10" points="889.2,634 889.3,634 889.3,634 889.3,634 889.3,634 889.3,634 889.3,634.2 
				889.4,634.2 889.8,634 889.6,634 889.5,634 			"/>
			<polygon id="XMLID_272_" class="st6" points="871,630.9 871,631 871,631 871,631 871,631 			"/>
			<path id="XMLID_299_" class="st6" d="M886.2,633.5l-1.4-0.2l-4-0.7c0.9,0.2,1.8,0.3,2.7,0.4c0.5,0.1,0.9,0.1,1.4,0.2c0,0,0,0,0,0
				C885.3,633.3,885.8,633.3,886.2,633.5z"/>
			<path id="XMLID_376_" class="st6" d="M879.4,632L879.4,632L879.4,632L879.4,632C879.4,632,879.4,632,879.4,632z"/>
			<path id="XMLID_377_" class="st6" d="M886.2,633.5l-1.4-0.2l-1.3-0.3c0.5,0.1,0.9,0.1,1.4,0.2c0,0,0,0,0,0
				C885.3,633.3,885.8,633.3,886.2,633.5z"/>
			<path id="XMLID_378_" class="st6" d="M886.2,633.5l0.5,0.2l-1.2-0.3L886.2,633.5C886.2,633.5,886.2,633.5,886.2,633.5z"/>
			<path id="XMLID_379_" class="st6" d="M905.3,634.5l-3.8,0.5h-1l-0.7,0.1l-0.3-0.1c0,0,0,0,0,0h-0.1l-0.1,0
				c-0.8-0.1-1.6-0.2-2.5-0.3v-0.1c-1.8-0.2-3.7-0.7-5.5-0.7c0,0,0,0,0,0h-1.7l0,0l-0.3,0h-0.3l-1.3-0.2v-0.2c0,0,0,0,0,0v-0.1
				c-2.8-0.5-5.9-1-9-1.6c0,0,0,0.1,0,0.1v0h0.1c0,0,0,0,0,0c0,0,0,0,0,0l0,0l0,0c0,0,0,0,0,0h0c0,0,0,0,0,0h0c0,0,0,0,0,0h0v0
				c0,0,0,0,0,0c0,0,0,0,0,0c0,0,0,0,0,0c0,0,0,0,0,0c-0.2,0-0.3,0-0.5,0h0c-0.5-0.2-1-0.4-1.5-0.5c-1.9-0.5-3.9-0.8-5.9-1.5v0.5
				c0,0,0,0,0,0c0-0.1,0-0.1,0-0.2c0-0.1,0-0.3,0-0.3h-2c-0.5,0-1.1-0.3-1.6-0.4l0-0.1L867,628v0l0.3,0l-0.3-2.8v0l-0.2-0.2
				l-0.1-0.1l-0.2-0.1l-0.2-0.8l-0.3-0.4v-0.1l-0.7-7.1l0.2-0.4l-0.5-4.2v0l-0.4-1.5l-0.4-1.1l-1-3.9l-0.2-0.7v-0.8l-1.9-11.9
				l2.1-0.3l0,0l3.5-0.5h0l0.2,0l10.3-1.8l16.3-2.8l3.4-0.6l0.2,0l0.2,1.4L905.3,634.5z"/>
			<path id="XMLID_335_" class="st6" d="M879.4,632.1L879.4,632.1L879.4,632.1l-0.2,0l-0.1,0c0,0-0.1,0-0.1,0h0v0h0v0c0,0,0,0,0,0
				c0,0,0,0,0-0.1c0,0,0,0,0.1,0c0,0,0,0.1,0,0.1v0h0c0,0,0,0,0,0c0,0,0,0,0,0L879.4,632.1L879.4,632.1
				C879.4,632,879.4,632,879.4,632.1L879.4,632.1z"/>
			<polygon id="XMLID_341_" class="st6" points="880.9,632.7 881.1,632.8 880.5,632.7 880.2,632.6 879.9,632.6 880.9,632.7 			"/>
			<path id="XMLID_344_" class="st6" d="M886.2,633.5l-1.4-0.2l-4-0.7c0.9,0.2,1.8,0.3,2.7,0.4c0.5,0.1,0.9,0.1,1.4,0.2c0,0,0,0,0,0
				C885.3,633.3,885.8,633.3,886.2,633.5z"/>
			<path id="XMLID_29_" class="st10" d="M887.9,634C888,634,888,634,887.9,634L887.9,634L887.9,634"/>
			<path id="XMLID_33_" class="st10" d="M888,634.1C888,634.1,888,634.1,888,634.1C888,634,888,634,888,634.1L888,634.1"/>
			<path id="XMLID_90_" class="st6" d="M879.3,632.5C879.3,632.5,879.3,632.5,879.3,632.5L879.3,632.5L879.3,632.5z"/>
			<path id="XMLID_265_" class="st6" d="M880.9,632.7l-0.2,0c-0.3,0-0.5-0.1-0.8-0.1L880.9,632.7L880.9,632.7z"/>
			<polyline id="XMLID_24_" class="st10" points="881.1,632.8 880.5,632.7 879.9,632.6 879.5,632.5 879.5,632.5 879.4,632.5 
				879.3,632.5 879.3,632.5 			"/>
			<polygon id="XMLID_307_" class="st6" points="879.5,632.5 879.8,632.6 879.4,632.5 879.3,632.5 879.4,632.5 879.5,632.5 			"/>
			<polygon id="XMLID_274_" class="st6" points="880.9,632.7 881.1,632.8 880.5,632.7 879.9,632.6 880.2,632.6 880.7,632.7 			"/>
			<path id="XMLID_284_" class="st6" d="M886.7,633.6l-1.2-0.3l0.6,0.1c0,0,0,0,0,0L886.7,633.6z"/>
			<path id="XMLID_66_" class="st6" d="M888,634C888,634,888,634,888,634L888,634C888,634,888,634,888,634z"/>
			<polygon id="XMLID_269_" class="st6" points="889.5,634 889.3,634 889.3,634 889.3,634 889.3,634 889.2,634 			"/>
			<polygon id="XMLID_312_" class="st6" points="891,634 891,634 890.8,634.2 890.5,634.1 890.5,634.1 890.3,634.1 890,634 			"/>
			<path id="XMLID_83_" class="st8" d="M897.1,613.6c0,0-0.7-4.3-1.7-10c-1-5.7-5.6-3-7.1-5.6c-0.6,3-5.9,2-4.9,7.7
				c1,5.7,1.7,10,1.7,10L897.1,613.6z"/>
			<polygon id="XMLID_281_" class="st8" points="889.9,634.2 890,634.2 890,634.2 			"/>
			<path id="XMLID_290_" class="st8" d="M900.3,632.7l-3.3,0.5l-5.5,0.9c0,0,0,0,0,0H891l-0.1,0l-0.2,0h-0.3l-0.2,0.1l-0.3,0.1
				l0-0.1l0-0.1h-0.7l-1.3-0.2v-0.2c0,0,0,0,0,0v-0.1c0-1.6-0.8-4.9-1.5-8.9c-1-5.7,4.3-4.7,4.9-7.6c1.1,1.8,3.8,1,5.6,2.5
				c0.7,0.6,1.3,1.5,1.6,3.2C899.5,628.3,900.3,632.7,900.3,632.7z"/>
			<path id="XMLID_81_" class="st8" d="M876.8,617c0,0-1.4-8.4-2.1-12.2c-0.6-3.8-3.7-2-4.8-3.8c-0.4,2-3.9,1.3-3.3,5.1
				c0.6,3.8,2.1,12.2,2.1,12.2L876.8,617z"/>
			<path id="XMLID_276_" class="st8" d="M871,631L871,631L871,631L871,631C871,631,871,631,871,631z"/>
			<path id="XMLID_278_" class="st8" d="M879,632L879,632C879,632,879,632,879,632C879,632,879,632,879,632z"/>
			<path id="XMLID_285_" class="st8" d="M879,632L879,632C879,632,879,632,879,632C879,632,879,632,879,632
				C879,632,879.1,632,879,632c-0.1-0.1-0.3-0.2-0.5-0.2c-2.4-0.5-4.9-1-7.5-1.5v0.2c0,0,0-0.1,0-0.2c0-0.1,0-0.3,0-0.3h0
				c-0.9-2-0.7-3.6-0.9-5c-0.6-3.8,2.8-3.1,3.2-5c1,1.7,4.1,0,4.7,3.8c0.3,2,1.1,5.4,1.1,8.1C879,631.9,879,631.9,879,632
				C879,631.9,879,632,879,632z"/>
			
				<rect id="XMLID_79_" x="876.2" y="576" transform="matrix(-0.9862 0.1655 -0.1655 -0.9862 1853.0596 1009.3907)" class="st9" width="16.5" height="11.8"/>
			<path id="XMLID_78_" class="st7" d="M875.4,577.4c-1.2-1.3-2-3-2.3-4.8c-0.9-5.3,8-11.2,8-11.2s10.3,2.7,11.2,8
				c0.3,1.9,0.1,3.7-0.6,5.3L875.4,577.4z"/>
			<g id="XMLID_75_">
				<path id="XMLID_77_" class="st8" d="M891.1,584.5c0,0-0.7-4.2-1-6.1c-0.3-1.9-1.9-1-2.4-1.9c-0.2,1-2,0.7-1.6,2.6
					c0.3,1.9,1,6.1,1,6.1L891.1,584.5z"/>
				<path id="XMLID_76_" class="st8" d="M883.1,585.9c0,0-0.7-4.2-1-6.1c-0.3-1.9-1.9-1-2.4-1.9c-0.2,1-2,0.7-1.6,2.6
					c0.3,1.9,1,6.1,1,6.1L883.1,585.9z"/>
			</g>
			
				<rect id="XMLID_74_" x="840.5" y="581" transform="matrix(-0.9477 0.3193 -0.3193 -0.9477 1829.5198 868.6137)" class="st6" width="6.1" height="6.6"/>
			<path id="XMLID_73_" class="st7" d="M839.6,582.1c-0.5-0.4-0.9-1-1.1-1.6c-0.6-1.9,2.2-4.5,2.2-4.5s3.9,0.4,4.5,2.2
				c0.2,0.7,0.2,1.3,0.1,2L839.6,582.1z"/>
			<g id="XMLID_70_">
				<path id="XMLID_72_" class="st8" d="M846.5,585.9c0,0-1.2-3.6-1.4-4.3c-0.2-0.7-0.7-0.3-1-0.5c0,0.4-0.7,0.4-0.4,1
					c0.2,0.7,1.4,4.3,1.4,4.3L846.5,585.9z"/>
				<path id="XMLID_71_" class="st8" d="M843.6,586.9c0,0-1.2-3.6-1.4-4.3c-0.2-0.7-0.7-0.3-1-0.5c0,0.4-0.7,0.4-0.4,1
					c0.2,0.7,1.4,4.3,1.4,4.3L843.6,586.9z"/>
			</g>
			<path id="XMLID_306_" class="st6" d="M863,628L863,628l0.1-0.1l-1.3-3.9l-0.1-0.3l-0.1-0.2l-2.7-7.2v0l0-0.1l-2-6v0l0,0l-0.5-1.1
				l-0.4-1l0,0l-7.1-19.6v0l-7,2.3l5.5,18.3l0.5,1.7v0l1,2.1l0,0.1v0l0.9,3l0.1,0.2v0l2,7.2l0,0l0,0.1l0.1,0.4l0.6,2.1
				c1.8,0.5,3.6,0.9,5.4,1.3c0,0,0.1,0,0.1,0c0.8,0.2,1.6,0.4,2.4,0.5c0.1,0,0.2,0,0.3,0.1c0.8,0.2,1.6,0.4,2.3,0.5L863,628z"/>
			<path id="XMLID_17_" class="st6" d="M859.5,628.5"/>
			
				<rect id="XMLID_68_" x="839.4" y="587.3" transform="matrix(-0.9477 0.3193 -0.3193 -0.9477 1833.6284 876.3582)" class="st8" width="11.1" height="2.3"/>
			
				<rect id="XMLID_67_" x="846.9" y="609.3" transform="matrix(-0.9477 0.3193 -0.3193 -0.9477 1855.1135 916.8928)" class="st8" width="11.1" height="2.3"/>
			
				<rect id="XMLID_65_" x="815.9" y="565.7" transform="matrix(-0.9477 0.3193 -0.3193 -0.9477 1778.9918 848.5319)" class="st6" width="8.2" height="8.8"/>
			<path id="XMLID_64_" class="st7" d="M814.7,567.2c-0.7-0.6-1.2-1.3-1.5-2.2c-0.8-2.5,3-6.1,3-6.1s5.2,0.5,6.1,3
				c0.3,0.9,0.3,1.8,0.1,2.6L814.7,567.2z"/>
			<g id="XMLID_61_">
				<path id="XMLID_63_" class="st8" d="M823.9,572.3c0,0-1.6-4.9-1.9-5.8c-0.3-0.9-1-0.3-1.3-0.7c0,0.5-0.9,0.5-0.6,1.4
					c0.3,0.9,1.9,5.8,1.9,5.8L823.9,572.3z"/>
				<path id="XMLID_62_" class="st8" d="M820,573.6c0,0-1.6-4.9-1.9-5.8c-0.3-0.9-1-0.3-1.3-0.7c0,0.5-0.9,0.5-0.6,1.4
					c0.3,0.9,1.9,5.8,1.9,5.8L820,573.6z"/>
			</g>
			<path id="XMLID_289_" class="st6" d="M840.2,623C840.2,623,840.2,623,840.2,623H840H840.2z"/>
			<path id="XMLID_291_" class="st6" d="M844.7,624.1c-1.3-0.4-2.6-0.7-3.9-1.1h-0.4c0,0-0.1,0-0.1,0h0.2c-3.5-1-7-2-10.1-3
				l-1.3-3.9V616h0.2l-2.2-7.1v0v-0.3v0l0,0.4h0l-1-3.4v0l-6-19.4v0l-2.3-7.5l2.3-0.8l7-2.3l0.9,2.5l8.7,23.9l1.1,2.9l1.5,4l2.6,7.2
				l2.5,6.8l0.1,0.4l0,0L844.7,624.1z"/>
			
				<rect id="XMLID_59_" x="814.4" y="574.2" transform="matrix(-0.9477 0.3193 -0.3193 -0.9477 1784.5038 858.9348)" class="st8" width="14.9" height="3.1"/>
			
				<rect id="XMLID_58_" x="824.4" y="603.8" transform="matrix(-0.9477 0.3193 -0.3193 -0.9477 1813.3446 913.3356)" class="st8" width="14.9" height="3.1"/>
		</g>
		<g id="XMLID_40_">
			<path id="XMLID_131_" class="st11" d="M1038.3,389.6l-1.9,0.3l-1.3-9.3c0,0,0.1-2.1,0.6-2.2c0.6-0.1,1.2,2,1.2,2L1038.3,389.6z"
				/>
			<path id="XMLID_130_" class="st12" d="M1044.5,391.3c-2.7-2.5-7.3-4.3-7.3-4.3l-0.4,0.1c0,0-4,3-5.8,6.2
				c-1.9,3.2-0.8,6.6-0.8,6.6l8.5-1.5l8.6-0.9C1047.1,397.4,1047.1,393.8,1044.5,391.3z"/>
			<path id="XMLID_129_" class="st12" d="M1027.2,402.2c2.8-1.1,6.9-2.1,11.5-2.8s8.9-0.8,11.8-0.5l-0.3-1.9
				c-2.9-0.3-7.2-0.1-11.8,0.5c-4.7,0.7-8.8,1.7-11.5,2.8L1027.2,402.2z"/>
			<path id="XMLID_128_" class="st11" d="M1050.6,398.9c0.1,0.5-5.1,1.6-11.6,2.5c-6.5,0.9-11.8,1.3-11.8,0.8
				c-0.1-0.5,5.1-2.1,11.5-3C1045.2,398.4,1050.5,398.5,1050.6,398.9z"/>
			<path id="XMLID_123_" class="st11" d="M1034.7,412.9l-0.3-2l-1.3-8.8l-0.2-1.3c0,0-0.4,0-1,0.2c-0.8,0.2-0.9,0.3-0.9,0.3l0.1,1
				l1.3,9.1l0.3,1.9l0.1,0.4l1.8-0.3L1034.7,412.9z M1038.4,412.2l-0.3-2.1l-1.2-8.4l-0.3-1.8c0,0-0.4,0-1,0.2
				c-0.8,0.2-0.9,0.3-0.9,0.3l0.2,1.6l1.2,8.5l0.3,2.1l0,0.3l1.9-0.3L1038.4,412.2z M1042.9,400.8c-0.6,0.1-1.2,0.2-1.8,0.3l1.2,8.4
				c0.3,0,0.6-0.1,0.9-0.1c0.3,0,0.6,0,0.9-0.1L1042.9,400.8z M1048.3,411.2l-0.3-1.9l-1.3-9.1l-0.1-1c0,0-0.2-0.1-0.9,0
				c-0.6,0-1,0.1-1,0.1l0.2,1.3l1.3,8.8l0.3,2l0.1,0.6l1.9-0.3L1048.3,411.2z M1041.1,401.1l1.2,8.4c0.3,0,0.6-0.1,0.9-0.1
				c0.3,0,0.6,0,0.9-0.1l-1.2-8.5C1042.4,400.9,1041.8,401,1041.1,401.1z M1044.5,411.4l-0.3-2.1l-1.2-8.5l-0.2-1.5
				c0,0-0.1-0.1-0.9,0c-0.6,0-1,0.1-1,0.1l0.3,1.8l1.2,8.4l0.3,2.1l0.1,0.4l1.8-0.3L1044.5,411.4z"/>
			<path id="XMLID_122_" class="st11" d="M1049.2,409.4c-2.2-0.2-5.5-0.1-9,0.4c-3.5,0.5-6.7,1.3-8.8,2.1l0.7,6.2
				c2.1-0.9,5.3-1.7,8.9-2.2c3.7-0.5,6.9-0.6,9.2-0.4L1049.2,409.4z"/>
			<path id="XMLID_121_" class="st12" d="M1052.3,411.3c-2.9-0.3-7.2-0.1-11.8,0.5s-8.8,1.7-11.5,2.8l0.9,8.2
				c2.7-1.1,6.9-2.2,11.7-2.9c4.8-0.7,9.1-0.8,12.1-0.5L1052.3,411.3z"/>
			<path id="XMLID_120_" class="st12" d="M1053.7,504.3c6-0.9,11.6-1.2,16.2-1.2l-8.5-44.1c-3.5-0.3-8.6-0.2-14.2,0.6
				c-5.6,0.8-10.5,2-13.8,3.4l4.2,44.7C1042.2,506.3,1047.7,505.1,1053.7,504.3z"/>
			<g id="XMLID_53_">
				<path id="XMLID_55_" class="st11" d="M1053.4,502.2c6.3-0.9,12.1-1.1,16.2-0.8l-2.2-11.4c-4-0.3-9.6-0.1-15.7,0.8
					c-6.1,0.9-11.5,2.2-15.3,3.6l1.1,11.6C1041.5,504.5,1047.1,503.2,1053.4,502.2z"/>
				<path id="XMLID_54_" class="st11" d="M1063.5,469.2c-3.7-0.3-8.9-0.1-14.6,0.7c-5.7,0.8-10.8,2.1-14.3,3.5l0.5,5.3
					c3.5-1.4,8.7-2.7,14.5-3.5c5.8-0.8,11.1-1,14.9-0.7L1063.5,469.2z"/>
			</g>
			<path id="XMLID_52_" class="st11" d="M1061.3,451.5c-3.7-0.4-9.1-0.2-15,0.7c-5.9,0.8-11.1,2.2-14.6,3.6l-0.2,4.8l2.3,3.8
				c3.2-1.4,7.7-2.7,13.8-3.5c6.1-0.9,10.8-0.9,14.3-0.5l1.1-4.3L1061.3,451.5z"/>
			<path id="XMLID_51_" class="st12" d="M1032.5,460.2l-0.4-2.8c0.3-0.1,0.6-0.3,1-0.4l0.4,2.9c0.4-0.1,0.8-0.3,1.2-0.4l-0.4-2.9
				c0.6-0.2,1.2-0.4,1.8-0.6l0.4,2.9c0.4-0.1,0.7-0.2,1.1-0.3l-0.4-3c0.8-0.2,1.6-0.4,2.4-0.6l0.4,3c0.5-0.1,0.9-0.2,1.4-0.3l-0.4-3
				c0.9-0.2,1.8-0.4,2.8-0.5l0.4,3c0.4-0.1,0.8-0.1,1.1-0.2l-0.4-3c0.3,0,0.6-0.1,0.9-0.1c0.2,0,0.4,0,0.6-0.1
				c0.2,0,0.4-0.1,0.6-0.1c0.3,0,0.6-0.1,0.9-0.1l0.4,3c0.4,0,0.8-0.1,1.1-0.1l-0.4-3c1-0.1,1.9-0.2,2.9-0.3l0.4,3
				c0.5,0,1-0.1,1.5-0.1l-0.4-3c0.9-0.1,1.7-0.1,2.5-0.1l0.4,3c0.4,0,0.8,0,1.1,0l-0.4-2.9c0.7,0,1.3,0,1.9,0l0.4,2.9
				c0.4,0,0.8,0,1.3,0l-0.4-2.9c0.4,0,0.7,0.1,1.1,0.1l0.4,2.8c0.4,0,0.8,0.1,1.2,0.1l-1.1-5.9c-3.9-0.4-9.5-0.2-15.7,0.7
				s-11.6,2.3-15.3,3.7l0.6,6C1031.8,460.4,1032.1,460.3,1032.5,460.2z"/>
			<path id="XMLID_93_" class="st12" d="M1085,566c-0.3,0-0.6,0-0.8,0c0,0,0,0,0,0c-5,4.8-10,9.3-15.1,13.5
				c-5.1,4.3-10.3,8.3-15.4,12c-3.4,2.5-6.9,4.9-10.3,7.1l-0.3-3.9l-0.8-9.3l-1.1-13.1v0l-0.7-8.7l-1.1-12.5l-0.7-8.2l-0.8-9.1
				l-1.2-13.9l-0.2-1.9c4.5-1.8,11.1-3.5,18.7-4.5s14.4-1.3,19.2-0.9l0.4,1.9l2.8,13.6l1.8,8.8h0l1.6,8.1l2.5,12.3l1.6,7.8l0,0
				c0,0,0,0,0,0l0,0.2L1085,566z"/>
			<path id="XMLID_49_" class="st11" d="M1057.3,529.2c7.8-1.1,14.9-1.4,20.1-1l-3.1-15.6c-4.8-0.5-11.6-0.2-19.2,0.9
				s-14.2,2.8-18.6,4.5l1.3,15.8C1042.6,532.1,1049.5,530.3,1057.3,529.2z"/>
			<path id="XMLID_48_" class="st11" d="M1059.7,546.2c8.3-1.2,15.8-1.5,21.1-1l-1.6-8.1c-5.1-0.5-12.5-0.2-20.6,0.9
				c-8.1,1.2-15.3,3-20,4.9l0.7,8.2C1044.1,549.2,1051.4,547.4,1059.7,546.2z"/>
			<path id="XMLID_69_" class="st11" d="M1085,566L1085,566c-0.3,0-0.6,0-0.9,0h0c-5.5,0-13.1-0.1-21.4,1.1
				c-8.8,1.3-16.5,3.2-21.7,5.3c0,0,0,0,0,0l-0.7-8.7c0,0,0,0,0,0c5.1-2,12.6-3.7,21.2-4.9c8.6-1.2,16.3-1.7,21.8-0.7h0l1.5,7.2l0,0
				c0,0,0,0,0,0l0,0.2L1085,566z"/>
			<path id="XMLID_60_" class="st11" d="M1064.6,580c1.5-0.2,3-0.4,4.5-0.6c-5.1,4.3-10.3,8.3-15.4,12c-4.1,1-7.8,2.1-10.7,3.3
				c-0.1,0-0.1,0-0.1,0l-0.8-9.3c0,0,0.1,0,0.1,0C1047.5,583.3,1055.5,581.3,1064.6,580z"/>
			<path id="XMLID_45_" class="st11" d="M1074,502.6c-5.1-0.5-12.4-0.2-20.4,0.9c-8,1.1-15.1,2.9-19.8,4.8l-0.4,5.9l3.1,5.7
				c4.4-1.9,10.5-3.6,18.7-4.8c8.2-1.2,14.6-1.3,19.3-0.7l1.4-6.4L1074,502.6z"/>
			<path id="XMLID_44_" class="st12" d="M1046.1,450.9c4.4-0.6,8.6-0.9,12-0.9l-5.8-29.6c-2.6-0.3-6.3-0.1-10.4,0.5
				c-4.1,0.6-7.7,1.5-10.2,2.5l2.7,30C1037.6,452.4,1041.7,451.5,1046.1,450.9z"/>
			<path id="XMLID_43_" class="st11" d="M1032.7,434.9l0.9,9.6c3.1-1,7-1.9,11.3-2.5c4.3-0.6,8.3-0.9,11.5-0.8l-1.9-9.5
				c-2.9-0.2-6.8,0-11,0.6C1039.2,433,1035.4,433.9,1032.7,434.9z"/>
			<path id="XMLID_42_" class="st11" d="M1042.3,424.4c4.1-0.6,7.8-0.8,10.6-0.6l0.8-4.4c-3-0.3-7.3-0.2-12.1,0.5
				c-4.8,0.7-9,1.8-11.7,2.9l2,4C1034.6,425.9,1038.2,425,1042.3,424.4z"/>
			<path id="XMLID_41_" class="st12" d="M1034.9,513.7l-0.5-3.3c0.4-0.2,0.9-0.3,1.3-0.5l0.5,3.4c0.5-0.2,1.1-0.3,1.6-0.5l-0.5-3.4
				c0.8-0.3,1.6-0.5,2.5-0.8l0.5,3.5c0.5-0.1,1-0.3,1.5-0.4l-0.5-3.5c1.1-0.3,2.1-0.6,3.3-0.8l0.5,3.5c0.6-0.1,1.3-0.3,1.9-0.4
				l-0.5-3.5c1.2-0.3,2.5-0.5,3.8-0.7l0.5,3.5c0.5-0.1,1-0.2,1.5-0.2l-0.5-3.5c0.4-0.1,0.8-0.1,1.2-0.2c0.3,0,0.5-0.1,0.8-0.1
				c0.3,0,0.5-0.1,0.7-0.1c0.4-0.1,0.8-0.1,1.2-0.2l0.5,3.5c0.5-0.1,1-0.1,1.6-0.2l-0.5-3.5c1.3-0.2,2.6-0.3,3.9-0.4l0.5,3.5
				c0.7-0.1,1.3-0.1,2-0.2l-0.5-3.5c1.2-0.1,2.3-0.1,3.4-0.1l0.5,3.5c0.5,0,1,0,1.5,0l-0.5-3.5c0.9,0,1.8,0,2.6,0l0.5,3.4
				c0.6,0,1.1,0,1.7,0l-0.5-3.4c0.5,0,1,0.1,1.4,0.1l0.5,3.3c0.5,0,1.1,0.1,1.6,0.1l-1.4-7.4c-5.3-0.5-12.9-0.2-21.3,1
				c-8.4,1.2-15.7,3.1-20.7,5l0.8,7.5C1033.9,514.1,1034.4,513.9,1034.9,513.7z"/>
		</g>
		<path id="XMLID_37_" class="st8" d="M1084.9,565.2l0.2,0.8h-0.1c-0.3,0-0.6,0-0.8,0C1084.4,565.7,1084.6,565.5,1084.9,565.2
			C1084.8,565.3,1084.8,565.3,1084.9,565.2C1084.8,565.3,1084.9,565.2,1084.9,565.2z"/>
	</g>
</g>
<g id="clouds" class="st0">
	<linearGradient id="XMLID_21_" gradientUnits="userSpaceOnUse" x1="695.6309" y1="350.3971" x2="827.6266" y2="348.3972">
		<stop  offset="0" style="stop-color:#0D9CED"/>
		<stop  offset="8.406270e-002" style="stop-color:#33ABF0"/>
		<stop  offset="0.2172" style="stop-color:#68C1F4"/>
		<stop  offset="0.352" style="stop-color:#96D4F7"/>
		<stop  offset="0.4857" style="stop-color:#BCE4FA"/>
		<stop  offset="0.618" style="stop-color:#D9F0FC"/>
		<stop  offset="0.7487" style="stop-color:#EEF8FE"/>
		<stop  offset="0.8769" style="stop-color:#FBFDFF"/>
		<stop  offset="1" style="stop-color:#FFFFFF"/>
	</linearGradient>
	<path id="XMLID_372_" class="st13" d="M829.2,378H693c-1.1-4-0.9-8.4,0.8-12.7c3.4-8.8,12.2-13.9,21.2-13.2c0-1.7,0.3-3.4,1-5
		c2.8-7.2,10.6-11,17.9-8.9c3.6-9,11.5-15.9,21.7-17.9c15.1-2.9,29.6,6.4,33.7,20.9c0,0,0.1,0,0.1,0c9.8,0,17.7,7.9,17.7,17.7
		c0,2.5-0.5,4.8-1.4,7c0.5,0.1,1,0.2,1.5,0.3c2.2,0.6,4.2,2.3,5.1,4.3c1.8-1.4,4-2.4,6.4-2.4C824.3,368.1,828.9,373,829.2,378z"/>
	<linearGradient id="XMLID_106_" gradientUnits="userSpaceOnUse" x1="696.0932" y1="381.0493" x2="828.0932" y2="379.0493">
		<stop  offset="0" style="stop-color:#0D9CED"/>
		<stop  offset="8.406270e-002" style="stop-color:#33ABF0"/>
		<stop  offset="0.2172" style="stop-color:#68C1F4"/>
		<stop  offset="0.352" style="stop-color:#96D4F7"/>
		<stop  offset="0.4857" style="stop-color:#BCE4FA"/>
		<stop  offset="0.618" style="stop-color:#D9F0FC"/>
		<stop  offset="0.7487" style="stop-color:#EEF8FE"/>
		<stop  offset="0.8769" style="stop-color:#FBFDFF"/>
		<stop  offset="1" style="stop-color:#FFFFFF"/>
	</linearGradient>
	<circle id="XMLID_134_" class="st14" cx="837.3" cy="378.9" r="6.2"/>
</g>
<g id="cloud" class="st0">
	<linearGradient id="XMLID_115_" gradientUnits="userSpaceOnUse" x1="977.2407" y1="294.8511" x2="1109.2445" y2="292.851">
		<stop  offset="0" style="stop-color:#0D9CED"/>
		<stop  offset="8.406270e-002" style="stop-color:#33ABF0"/>
		<stop  offset="0.2172" style="stop-color:#68C1F4"/>
		<stop  offset="0.352" style="stop-color:#96D4F7"/>
		<stop  offset="0.4857" style="stop-color:#BCE4FA"/>
		<stop  offset="0.618" style="stop-color:#D9F0FC"/>
		<stop  offset="0.7487" style="stop-color:#EEF8FE"/>
		<stop  offset="0.8769" style="stop-color:#FBFDFF"/>
		<stop  offset="1" style="stop-color:#FFFFFF"/>
	</linearGradient>
	<path id="XMLID_371_" class="st15" d="M1110.8,320.7c0,1.6-0.4,3.3-1,4.3H976.6c-3-5-3.7-11.6-1.3-17.7
		c3.4-8.8,12.2-13.9,21.2-13.2c0-1.7,0.3-3.4,1-5c2.8-7.2,10.6-11,17.9-8.9c3.6-8.9,11.5-16,21.7-17.9c15.1-2.9,29.6,6.8,33.7,20.8
		h0.1c9.8,0,17.7,8,17.7,17.8c0,2.5-0.5,4.9-1.4,7c0.5,0.1,1,0.2,1.5,0.3c2.2,0.6,4.2,2.3,5.1,4.3c1.8-1.4,4-2.3,6.4-2.3
		C1106.1,310.2,1110.8,314.8,1110.8,320.7z"/>
	<linearGradient id="XMLID_124_" gradientUnits="userSpaceOnUse" x1="977.6666" y1="323.035" x2="1109.6665" y2="321.035">
		<stop  offset="0" style="stop-color:#0D9CED"/>
		<stop  offset="8.406270e-002" style="stop-color:#33ABF0"/>
		<stop  offset="0.2172" style="stop-color:#68C1F4"/>
		<stop  offset="0.352" style="stop-color:#96D4F7"/>
		<stop  offset="0.4857" style="stop-color:#BCE4FA"/>
		<stop  offset="0.618" style="stop-color:#D9F0FC"/>
		<stop  offset="0.7487" style="stop-color:#EEF8FE"/>
		<stop  offset="0.8769" style="stop-color:#FBFDFF"/>
		<stop  offset="1" style="stop-color:#FFFFFF"/>
	</linearGradient>
	<circle id="XMLID_125_" class="st16" cx="1118.8" cy="320.9" r="6.2"/>
</g>
<g id="dots" class="st0">
	<circle id="XMLID_4_" class="st17" cx="760.8" cy="299.8" r="6.8"/>
	<circle id="XMLID_104_" class="st17" cx="954.8" cy="413.8" r="6.8"/>
	<circle id="XMLID_46_" class="st17" cx="709.6" cy="254.6" r="4.6"/>
	<circle id="XMLID_50_" class="st17" cx="1054.5" cy="358.5" r="9.5"/>
	<circle id="XMLID_19_" class="st18" cx="892" cy="295.3" r="4.9"/>
	<g id="XMLID_34_" class="st2">
		<circle id="XMLID_88_" class="st19" cx="711.6" cy="433.9" r="2.7"/>
		<circle id="XMLID_86_" class="st19" cx="1012.6" cy="272.9" r="3.4"/>
		<circle id="XMLID_82_" class="st19" cx="906.4" cy="369.7" r="6.2"/>
	</g>
</g>
<g id="sides">
	<linearGradient id="XMLID_126_" gradientUnits="userSpaceOnUse" x1="0" y1="104.985" x2="362" y2="104.985">
		<stop  offset="0" style="stop-color:#FF6913"/>
		<stop  offset="0.2853" style="stop-color:#FF6C14"/>
		<stop  offset="0.4718" style="stop-color:#FE7419"/>
		<stop  offset="0.6301" style="stop-color:#FD8322"/>
		<stop  offset="0.7725" style="stop-color:#FB982D"/>
		<stop  offset="0.9031" style="stop-color:#F8B43C"/>
		<stop  offset="1" style="stop-color:#F6CD4A"/>
	</linearGradient>
	<path id="XMLID_375_" class="st20" d="M362,1C121.4,28.1,139.4,176.8,0,209V1H362z"/>
	<linearGradient id="XMLID_127_" gradientUnits="userSpaceOnUse" x1="0" y1="87.975" x2="255.08" y2="87.975">
		<stop  offset="0" style="stop-color:#FF6913"/>
		<stop  offset="0.2853" style="stop-color:#FF6C14"/>
		<stop  offset="0.4718" style="stop-color:#FE7419"/>
		<stop  offset="0.6301" style="stop-color:#FD8322"/>
		<stop  offset="0.7725" style="stop-color:#FB982D"/>
		<stop  offset="0.9031" style="stop-color:#F8B43C"/>
		<stop  offset="1" style="stop-color:#F6CD4A"/>
	</linearGradient>
	<path id="XMLID_370_" class="st21" d="M255.1,1C98.2,32.9,72.8,125,0,175V1H255.1z"/>
	<linearGradient id="XMLID_132_" gradientUnits="userSpaceOnUse" x1="711.91" y1="645.595" x2="1366" y2="645.595">
		<stop  offset="0" style="stop-color:#FF6913"/>
		<stop  offset="0.2853" style="stop-color:#FF6C14"/>
		<stop  offset="0.4718" style="stop-color:#FE7419"/>
		<stop  offset="0.6301" style="stop-color:#FD8322"/>
		<stop  offset="0.7725" style="stop-color:#FB982D"/>
		<stop  offset="0.9031" style="stop-color:#F8B43C"/>
		<stop  offset="1" style="stop-color:#F6CD4A"/>
	</linearGradient>
	<path id="XMLID_384_" class="st22" d="M1366,523.2V768H711.9c115.3-48.7,273.8-50.5,446.1-77C1270.4,673.7,1332.6,593.4,1366,523.2
		z"/>
	<linearGradient id="XMLID_133_" gradientUnits="userSpaceOnUse" x1="801.17" y1="686.285" x2="1366" y2="686.285">
		<stop  offset="0" style="stop-color:#FF6913"/>
		<stop  offset="0.2853" style="stop-color:#FF6C14"/>
		<stop  offset="0.4718" style="stop-color:#FE7419"/>
		<stop  offset="0.6301" style="stop-color:#FD8322"/>
		<stop  offset="0.7725" style="stop-color:#FB982D"/>
		<stop  offset="0.9031" style="stop-color:#F8B43C"/>
		<stop  offset="1" style="stop-color:#F6CD4A"/>
	</linearGradient>
	<path id="XMLID_382_" class="st23" d="M1366,604.6V768H801.2c109-31.7,246.9-36.2,394.8-59C1275,696.8,1329.2,653.6,1366,604.6z"/>
	<linearGradient id="XMLID_135_" gradientUnits="userSpaceOnUse" x1="1236.9099" y1="700.665" x2="1366" y2="700.665">
		<stop  offset="0" style="stop-color:#FF6913"/>
		<stop  offset="0.2853" style="stop-color:#FF6C14"/>
		<stop  offset="0.4718" style="stop-color:#FE7419"/>
		<stop  offset="0.6301" style="stop-color:#FD8322"/>
		<stop  offset="0.7725" style="stop-color:#FB982D"/>
		<stop  offset="0.9031" style="stop-color:#F8B43C"/>
		<stop  offset="1" style="stop-color:#F6CD4A"/>
	</linearGradient>
	<path id="XMLID_380_" class="st24" d="M1366,633.3V768h-129.1C1299.9,737,1340.4,683.5,1366,633.3z"/>
</g>
</svg>
