<svg xmlns="http://www.w3.org/2000/svg" style="display: none;"><symbol id="facebook" viewBox="0 0 314.652 314.652"><title>facebook</title><path d="M157.326,0C70.576,0,0,70.576,0,157.326s70.576,157.326,157.326,157.326s157.326-70.576,157.326-157.326 S244.076,0,157.326,0z M157.326,296.652C80.501,296.652,18,234.15,18,157.326S80.501,18,157.326,18s139.326,62.502,139.326,139.326 S234.151,296.652,157.326,296.652z"/><path d="M193.764,71.952H172.43c-17.461,0-31.667,14.206-31.667,31.667v24h-19.875c-4.971,0-9,4.029-9,9s4.029,9,9,9h19.875v83.333 c0,4.971,4.029,9,9,9s9-4.029,9-9v-83.333h30.75c4.971,0,9-4.029,9-9s-4.029-9-9-9h-30.75v-24c0-7.536,6.131-13.667,13.667-13.667 h21.333c4.971,0,9-4.029,9-9S198.734,71.952,193.764,71.952z"/></symbol><symbol id="youtube" viewBox="0 0 512 512"><title>youtube</title><g> <g> <g> <path d="M330.474,230.57l-103.136-53.555c-8.024-4.168-17.809-3.842-25.541,0.854c-7.727,4.695-12.528,13.227-12.528,22.269 V307.6c0,9.055,4.81,17.595,12.559,22.29c4.07,2.464,8.738,3.767,13.498,3.767c4.188,0,8.361-1.025,12.07-2.963l103.136-53.903 c8.641-4.513,14.001-13.376,13.991-23.131C344.511,243.911,339.127,235.063,330.474,230.57z M321.084,258.711h-0.001 l-103.138,53.904c-1.718,0.899-3.895,0.829-5.55-0.173c-1.683-1.02-2.728-2.875-2.728-4.843V200.138 c0-1.963,1.043-3.815,2.72-4.834c0.897-0.544,1.918-0.818,2.943-0.818c0.895,0,1.792,0.209,2.604,0.631l103.138,53.556 c1.88,0.976,3.049,2.898,3.052,5.012C324.125,255.805,322.96,257.731,321.084,258.711z"/> <path d="M490.444,106.148v0.001c-19.915-23.675-54.938-33.333-120.882-33.333H142.434c-67.52,0-103.159,10.287-123.013,35.508 C0,132.998,0,166.742,0,213.446v85.109c0,38.36,3.237,77.555,26.725,104.375c21.66,24.734,58.427,36.254,115.709,36.254h227.129 c57.17,0,89.279-8.413,110.831-29.039C502.547,388.944,512,355.571,512,298.555v-85.109 C512,164.107,510.5,129.984,490.444,106.148z M491.602,298.555c0,50.908-7.57,79.874-25.312,96.853 c-17.35,16.604-45.373,23.378-96.726,23.378H142.434c-104.416,0-122.035-37.09-122.035-120.23v-85.109 c0-42.602,0-73.383,15.051-92.504c15.503-19.695,46.498-27.728,106.985-27.728v-0.001h227.128 c59.199,0,89.699,7.552,105.273,26.066v0.001c15.6,18.539,16.766,49.32,16.766,94.165V298.555z"/> </g> </g> </g><g> <g> <path d="M341.673,387.57h-9.179c-5.633,0-10.199,4.566-10.199,10.199c0,5.633,4.566,10.199,10.199,10.199h9.179 c5.633,0,10.199-4.566,10.199-10.199C351.872,392.136,347.306,387.57,341.673,387.57z"/> </g> </g><g> <g> <path d="M292.717,387.57H131.57c-5.633,0-10.199,4.566-10.199,10.199c0,5.633,4.566,10.199,10.199,10.199h161.147 c5.633,0,10.199-4.566,10.199-10.199C302.916,392.136,298.35,387.57,292.717,387.57z"/> </g> </g></symbol><symbol id="back" viewBox="0 0 477.175 477.175"><title>back</title><path d="M145.188,238.575l215.5-215.5c5.3-5.3,5.3-13.8,0-19.1s-13.8-5.3-19.1,0l-225.1,225.1c-5.3,5.3-5.3,13.8,0,19.1l225.1,225 c2.6,2.6,6.1,4,9.5,4s6.9-1.3,9.5-4c5.3-5.3,5.3-13.8,0-19.1L145.188,238.575z"/></symbol><symbol id="right-arrow" viewBox="0 0 129 129"><title>right-arrow</title><path d="m40.4,121.3c-0.8,0.8-1.8,1.2-2.9,1.2s-2.1-0.4-2.9-1.2c-1.6-1.6-1.6-4.2 0-5.8l51-51-51-51c-1.6-1.6-1.6-4.2 0-5.8 1.6-1.6 4.2-1.6 5.8,0l53.9,53.9c1.6,1.6 1.6,4.2 0,5.8l-53.9,53.9z"/></symbol><symbol id="down-arrow" viewBox="0 0 129 129"><title>down-arrow</title><path d="m121.3,34.6c-1.6-1.6-4.2-1.6-5.8,0l-51,51.1-51.1-51.1c-1.6-1.6-4.2-1.6-5.8,0-1.6,1.6-1.6,4.2 0,5.8l53.9,53.9c0.8,0.8 1.8,1.2 2.9,1.2 1,0 2.1-0.4 2.9-1.2l53.9-53.9c1.7-1.6 1.7-4.2 0.1-5.8z"/></symbol><symbol id="download" viewBox="0 0 471.2 471.2"><title>download</title><path d="M457.7,230.15c-7.5,0-13.5,6-13.5,13.5v122.8c0,33.4-27.2,60.5-60.5,60.5H87.5c-33.4,0-60.5-27.2-60.5-60.5v-124.8 c0-7.5-6-13.5-13.5-13.5s-13.5,6-13.5,13.5v124.8c0,48.3,39.3,87.5,87.5,87.5h296.2c48.3,0,87.5-39.3,87.5-87.5v-122.8 C471.2,236.25,465.2,230.15,457.7,230.15z"/><path d="M226.1,346.75c2.6,2.6,6.1,4,9.5,4s6.9-1.3,9.5-4l85.8-85.8c5.3-5.3,5.3-13.8,0-19.1c-5.3-5.3-13.8-5.3-19.1,0l-62.7,62.8 V30.75c0-7.5-6-13.5-13.5-13.5s-13.5,6-13.5,13.5v273.9l-62.8-62.8c-5.3-5.3-13.8-5.3-19.1,0c-5.3,5.3-5.3,13.8,0,19.1 L226.1,346.75z"/></symbol><symbol id="upload" viewBox="0 0 486.3 486.3"><title>upload</title><path d="M395.5,135.8c-5.2-30.9-20.5-59.1-43.9-80.5c-26-23.8-59.8-36.9-95-36.9c-27.2,0-53.7,7.8-76.4,22.5 c-18.9,12.2-34.6,28.7-45.7,48.1c-4.8-0.9-9.8-1.4-14.8-1.4c-42.5,0-77.1,34.6-77.1,77.1c0,5.5,0.6,10.8,1.6,16 C16.7,200.7,0,232.9,0,267.2c0,27.7,10.3,54.6,29.1,75.9c19.3,21.8,44.8,34.7,72,36.2c0.3,0,0.5,0,0.8,0h86 c7.5,0,13.5-6,13.5-13.5s-6-13.5-13.5-13.5h-85.6C61.4,349.8,27,310.9,27,267.1c0-28.3,15.2-54.7,39.7-69 c5.7-3.3,8.1-10.2,5.9-16.4c-2-5.4-3-11.1-3-17.2c0-27.6,22.5-50.1,50.1-50.1c5.9,0,11.7,1,17.1,3c6.6,2.4,13.9-0.6,16.9-6.9 c18.7-39.7,59.1-65.3,103-65.3c59,0,107.7,44.2,113.3,102.8c0.6,6.1,5.2,11,11.2,12c44.5,7.6,78.1,48.7,78.1,95.6 c0,49.7-39.1,92.9-87.3,96.6h-73.7c-7.5,0-13.5,6-13.5,13.5s6,13.5,13.5,13.5h74.2c0.3,0,0.6,0,1,0c30.5-2.2,59-16.2,80.2-39.6 c21.1-23.2,32.6-53,32.6-84C486.2,199.5,447.9,149.6,395.5,135.8z"/><path d="M324.2,280c5.3-5.3,5.3-13.8,0-19.1l-71.5-71.5c-2.5-2.5-6-4-9.5-4s-7,1.4-9.5,4l-71.5,71.5c-5.3,5.3-5.3,13.8,0,19.1 c2.6,2.6,6.1,4,9.5,4s6.9-1.3,9.5-4l48.5-48.5v222.9c0,7.5,6,13.5,13.5,13.5s13.5-6,13.5-13.5V231.5l48.5,48.5 C310.4,285.3,318.9,285.3,324.2,280z"/></symbol><symbol id="refresh" viewBox="0 0 512 512"><title>refresh</title><path d="M482.195,226.196C482.195,101.471,380.725,0,256.001,0S29.805,101.471,29.805,226.196c0,7.409,6.007,13.416,13.416,13.416 s13.416-6.008,13.416-13.416c0-109.93,89.434-199.363,199.363-199.363s199.363,89.434,199.363,199.363 c0,109.928-89.434,199.362-199.363,199.362h-23.276l33.282-37.255c4.937-5.525,4.458-14.007-1.067-18.944 c-5.525-4.937-14.008-4.457-18.944,1.068l-47.576,53.255c-7.788,8.718-7.788,21.866,0,30.584l47.576,53.255 c2.651,2.968,6.322,4.478,10.01,4.478c3.181,0,6.375-1.126,8.934-3.41c5.526-4.937,6.004-13.419,1.067-18.944l-33.282-37.255 h23.276C380.725,452.39,482.195,350.919,482.195,226.196z"/></symbol><symbol id="add" viewBox="0 0 31.059 31.059"><title>add</title><g> <path style="fill:#010002;" d="M15.529,31.059C6.966,31.059,0,24.092,0,15.529C0,6.966,6.966,0,15.529,0 c8.563,0,15.529,6.966,15.529,15.529C31.059,24.092,24.092,31.059,15.529,31.059z M15.529,1.774 c-7.585,0-13.755,6.171-13.755,13.755s6.17,13.754,13.755,13.754c7.584,0,13.754-6.17,13.754-13.754S23.113,1.774,15.529,1.774z"/> </g><g> <path style="fill:#010002;" d="M21.652,16.416H9.406c-0.49,0-0.888-0.396-0.888-0.887c0-0.49,0.397-0.888,0.888-0.888h12.246 c0.49,0,0.887,0.398,0.887,0.888C22.539,16.02,22.143,16.416,21.652,16.416z"/> </g><g> <path style="fill:#010002;" d="M15.529,22.539c-0.49,0-0.888-0.397-0.888-0.887V9.406c0-0.49,0.398-0.888,0.888-0.888 c0.49,0,0.887,0.398,0.887,0.888v12.246C16.416,22.143,16.02,22.539,15.529,22.539z"/> </g></symbol><symbol id="more-circular-button-interface-symbol-of-three-horizontal-dots" viewBox="0 0 612 612"><title>more-circular-button-interface-symbol-of-three-horizontal-dots</title><circle cx="139.091" cy="306" r="55.636"/><circle cx="472.909" cy="306" r="55.636"/><circle cx="306" cy="306" r="55.636"/><path d="M612,306C612,137.004,474.995,0,306,0C137.004,0,0,137.004,0,306c0,168.995,137.004,306,306,306 C474.995,612,612,474.995,612,306z M27.818,306C27.818,152.36,152.36,27.818,306,27.818S584.182,152.36,584.182,306 S459.64,584.182,306,584.182S27.818,459.64,27.818,306z"/></symbol><symbol id="user" viewBox="0 0 512 512"><title>user</title><path d="M437.02,330.98c-27.883-27.882-61.071-48.523-97.281-61.018C378.521,243.251,404,198.548,404,148 C404,66.393,337.607,0,256,0S108,66.393,108,148c0,50.548,25.479,95.251,64.262,121.962 c-36.21,12.495-69.398,33.136-97.281,61.018C26.629,379.333,0,443.62,0,512h40c0-119.103,96.897-216,216-216s216,96.897,216,216 h40C512,443.62,485.371,379.333,437.02,330.98z M256,256c-59.551,0-108-48.448-108-108S196.449,40,256,40 c59.551,0,108,48.448,108,108S315.551,256,256,256z"/></symbol><symbol id="closed-lock" viewBox="0 0 320 320"><title>closed-lock</title><path d="M231.731,133.115V64.523C231.731,28.945,204.733,0,171.549,0h-23.098c-33.185,0-60.183,28.945-60.183,64.523v68.591 c-20.308,19.738-33.011,47.731-33.011,78.733C55.258,271.483,102.245,320,160,320s104.742-48.517,104.742-108.152 C264.742,180.846,252.04,152.853,231.731,133.115z M108.269,117.804v-53.28c0-24.551,18.025-44.523,40.183-44.523h23.098 c22.157,0,40.183,19.973,40.183,44.523v53.28c-2.73-1.601-5.528-3.063-8.38-4.402c-0.102-0.048-0.203-0.099-0.305-0.147 c-0.399-0.186-0.801-0.363-1.202-0.544c-0.596-0.269-1.195-0.534-1.796-0.792c-0.282-0.12-0.563-0.24-0.846-0.358 c-0.891-0.373-1.787-0.734-2.689-1.082c-0.02-0.008-0.04-0.016-0.059-0.023c-9.231-3.55-19.073-5.789-29.314-6.504 c-0.237-0.017-0.474-0.032-0.711-0.047c-0.82-0.052-1.643-0.093-2.468-0.125c-0.271-0.011-0.542-0.024-0.814-0.032 c-1.046-0.032-2.094-0.053-3.147-0.053s-2.101,0.021-3.147,0.053c-0.272,0.008-0.543,0.021-0.814,0.032 c-0.825,0.032-1.648,0.073-2.468,0.125c-0.237,0.015-0.474,0.03-0.711,0.047c-10.241,0.715-20.083,2.954-29.314,6.504 c-0.02,0.008-0.04,0.016-0.059,0.023c-0.903,0.348-1.799,0.709-2.689,1.082c-0.283,0.118-0.564,0.237-0.846,0.358 c-0.602,0.258-1.2,0.523-1.796,0.792c-0.401,0.18-0.803,0.358-1.202,0.544c-0.102,0.048-0.203,0.099-0.305,0.147 C113.797,114.74,110.998,116.203,108.269,117.804z M160,300c-46.727,0-84.742-39.545-84.742-88.152 c0-32.953,17.476-61.736,43.29-76.861c0.402-0.234,0.802-0.472,1.207-0.699c0.442-0.249,0.888-0.492,1.335-0.734 c0.784-0.422,1.572-0.836,2.368-1.232c0.252-0.126,0.507-0.247,0.761-0.37c8.831-4.279,18.342-6.968,28.119-7.892 c0.085-0.008,0.171-0.016,0.257-0.024c1.158-0.106,2.32-0.187,3.484-0.243c0.135-0.006,0.272-0.01,0.407-0.016 c1.169-0.051,2.341-0.082,3.515-0.082s2.346,0.031,3.515,0.082c0.136,0.006,0.272,0.01,0.407,0.016 c1.165,0.056,2.326,0.137,3.484,0.243c0.086,0.008,0.171,0.016,0.257,0.024c9.777,0.924,19.288,3.613,28.119,7.892 c0.254,0.123,0.509,0.244,0.761,0.37c0.796,0.396,1.583,0.81,2.368,1.232c0.447,0.241,0.893,0.484,1.335,0.734 c0.405,0.227,0.806,0.465,1.207,0.699c25.814,15.125,43.29,43.908,43.29,76.861C244.742,260.455,206.727,300,160,300z"/><path d="M189.504,195.563c0-16.273-13.235-29.513-29.505-29.513c-16.268,0-29.503,13.239-29.503,29.513 c0,8.318,3.452,16.06,9.343,21.557l-7.075,31.729c-0.159,0.715-0.239,1.444-0.239,2.177c0,8.667,8.488,15.202,19.744,15.202h15.467 c11.254,0,19.74-6.535,19.74-15.202c0-0.732-0.08-1.462-0.24-2.177l-7.076-31.729C186.051,211.622,189.504,203.881,189.504,195.563 z M153.84,246.227l6.159-27.622l6.161,27.622H153.84z M164.36,204.014c-1.944,1.01-3.443,2.591-4.361,4.455 c-0.918-1.864-2.417-3.445-4.361-4.455c-3.171-1.647-5.142-4.886-5.142-8.451c0-5.245,4.263-9.513,9.503-9.513 c5.241,0,9.505,4.268,9.505,9.513C169.504,199.127,167.533,202.365,164.36,204.014z"/></symbol><symbol id="instagram" viewBox="0 0 314.652 314.652"><title>instagram</title><path d="M157.326,0C70.576,0,0,70.576,0,157.326s70.576,157.326,157.326,157.326s157.326-70.576,157.326-157.326 S244.076,0,157.326,0z M157.326,296.652C80.502,296.652,18,234.15,18,157.326S80.502,18,157.326,18s139.326,62.502,139.326,139.326 S234.15,296.652,157.326,296.652z"/><path d="M214.618,80.326H100.034c-10.477,0-19,8.523-19,19v116c0,10.477,8.523,19,19,19h114.584c10.477,0,19-8.523,19-19v-116 C233.618,88.85,225.095,80.326,214.618,80.326z M215.618,215.326c0,0.552-0.448,1-1,1H100.034c-0.552,0-1-0.448-1-1v-116 c0-0.552,0.448-1,1-1h114.584c0.552,0,1,0.448,1,1V215.326z"/><rect x="183.583" y="111.812" width="20.615" height="18.911"/><circle cx="157.326" cy="164.946" r="20.324"/><path d="M189.745,164.856c0,17.904-14.514,32.418-32.418,32.418s-32.418-14.514-32.418-32.418l0.044-14.445h-14.497v53.761h93.743 v-53.761H189.82L189.745,164.856z"/></symbol><symbol id="settings" viewBox="0 0 54 54"><title>settings</title><path d="M27,13c-7.72,0-14,6.28-14,14s6.28,14,14,14s14-6.28,14-14S34.72,13,27,13z M27,39c-6.617,0-12-5.383-12-12s5.383-12,12-12 s12,5.383,12,12S33.617,39,27,39z"/><path d="M51.22,21h-2.018c-0.515-1.912-1.272-3.742-2.26-5.457l1.426-1.426c0.525-0.525,0.814-1.224,0.814-1.966 c0-0.743-0.289-1.441-0.814-1.967l-4.553-4.553c-1.05-1.049-2.881-1.051-3.933,0l-1.426,1.426C36.74,6.07,34.911,5.313,33,4.798 V2.78C33,1.247,31.753,0,30.22,0H23.78C22.247,0,21,1.247,21,2.78v2.018c-1.911,0.515-3.74,1.272-5.457,2.26l-1.426-1.426 c-1.051-1.052-2.883-1.05-3.933,0l-4.553,4.553c-0.525,0.525-0.814,1.224-0.814,1.967c0,0.742,0.289,1.44,0.814,1.966l1.426,1.426 C6.07,17.258,5.312,19.088,4.798,21H2.78C1.247,21,0,22.247,0,23.78v6.439C0,31.753,1.247,33,2.78,33h2.018 c0.515,1.911,1.272,3.74,2.26,5.457l-1.426,1.426c-0.525,0.525-0.814,1.224-0.814,1.966c0,0.743,0.289,1.441,0.814,1.967 l4.553,4.553c1.05,1.051,2.882,1.052,3.933,0l1.426-1.426c1.717,0.987,3.546,1.745,5.457,2.26v2.018c0,1.533,1.247,2.78,2.78,2.78 h6.439c1.533,0,2.78-1.247,2.78-2.78v-2.018c1.911-0.515,3.74-1.272,5.457-2.26l1.426,1.426c1.052,1.052,2.882,1.05,3.933,0 l4.553-4.553c0.525-0.525,0.814-1.224,0.814-1.967c0-0.742-0.289-1.44-0.814-1.966l-1.426-1.426 c0.987-1.717,1.745-3.546,2.26-5.457h2.018c1.533,0,2.78-1.247,2.78-2.78V23.78C54,22.247,52.753,21,51.22,21z M52,30.22 C52,30.65,51.65,31,51.22,31h-3.592l-0.18,0.773c-0.521,2.237-1.399,4.36-2.613,6.311l-0.42,0.674l2.539,2.539 c0.305,0.305,0.305,0.8,0,1.104l-4.553,4.553c-0.304,0.304-0.799,0.306-1.104,0l-2.539-2.539l-0.674,0.42 c-1.95,1.214-4.073,2.093-6.311,2.613L31,47.628v3.592C31,51.65,30.65,52,30.22,52H23.78C23.35,52,23,51.65,23,51.22v-3.592 l-0.773-0.18c-2.237-0.521-4.36-1.399-6.311-2.613l-0.674-0.42l-2.539,2.539c-0.306,0.306-0.801,0.304-1.104,0l-4.553-4.553 c-0.305-0.305-0.305-0.8,0-1.104l2.539-2.539l-0.42-0.674c-1.214-1.95-2.093-4.073-2.613-6.311L6.372,31H2.78 C2.35,31,2,30.65,2,30.22V23.78C2,23.35,2.35,23,2.78,23h3.592l0.18-0.773c0.521-2.238,1.399-4.361,2.613-6.311l0.42-0.674 l-2.539-2.539c-0.305-0.305-0.305-0.8,0-1.104l4.553-4.553c0.304-0.304,0.799-0.306,1.104,0l2.539,2.539l0.674-0.42 c1.95-1.214,4.073-2.093,6.311-2.613L23,6.372V2.78C23,2.35,23.35,2,23.78,2h6.439C30.65,2,31,2.35,31,2.78v3.592l0.773,0.18 c2.237,0.521,4.36,1.399,6.311,2.613l0.674,0.42l2.539-2.539c0.306-0.306,0.801-0.304,1.104,0l4.553,4.553 c0.305,0.305,0.305,0.8,0,1.104l-2.539,2.539l0.42,0.674c1.214,1.949,2.093,4.072,2.613,6.311L47.628,23h3.592 C51.65,23,52,23.35,52,23.78V30.22z"/><path d="M27,17c-5.514,0-10,4.486-10,10s4.486,10,10,10s10-4.486,10-10S32.514,17,27,17z M27,35c-4.411,0-8-3.589-8-8s3.589-8,8-8 s8,3.589,8,8S31.411,35,27,35z"/></symbol><symbol id="clipboard" viewBox="-63 0 479 480"><title>clipboard</title><path d="m200.5 0h-48c-22.082031.0273438-39.972656 17.917969-40 40v8h-88c-13.253906 0-24 10.746094-24 24v384c0 13.253906 10.746094 24 24 24h304c13.253906 0 24-10.746094 24-24v-384c0-13.253906-10.746094-24-24-24h-88v-8c-.027344-22.082031-17.917969-39.9726562-40-40zm-72 40c0-13.253906 10.746094-24 24-24h48c13.253906 0 24 10.746094 24 24v8h-96zm80 40h-64v-16h64zm-56 48h48c13.253906 0 24-10.746094 24-24v-8h80v336h-256v-336h80v8c0 13.253906 10.746094 24 24 24zm56-24c0 4.417969-3.582031 8-8 8h-48c-4.417969 0-8-3.582031-8-8v-8h64zm128-32v384c0 4.417969-3.582031 8-8 8h-304c-4.417969 0-8-3.582031-8-8v-384c0-4.417969 3.582031-8 8-8h104v16h-88c-4.417969 0-8 3.582031-8 8v352c0 4.417969 3.582031 8 8 8h272c4.417969 0 8-3.582031 8-8v-352c0-4.417969-3.582031-8-8-8h-88v-16h104c4.417969 0 8 3.582031 8 8zm0 0"/><path d="m104.5 248c0 39.765625 32.234375 72 72 72s72-32.234375 72-72-32.234375-72-72-72c-39.746094.042969-71.957031 32.253906-72 72zm72-56c30.929688 0 56 25.070312 56 56s-25.070312 56-56 56-56-25.070312-56-56c.035156-30.914062 25.085938-55.964844 56-56zm0 0"/><path d="m161.84375 276.441406c1.328125 1.992188 3.480469 3.28125 5.863281 3.519532.265625.027343.527344.042968.792969.039062 2.121094 0 4.15625-.84375 5.65625-2.34375l40-40c3.03125-3.140625 2.988281-8.128906-.097656-11.214844-3.085938-3.085937-8.074219-3.128906-11.214844-.097656l-33.105469 33.097656-10.582031-15.882812c-2.453125-3.675782-7.421875-4.667969-11.097656-2.214844-3.675782 2.453125-4.667969 7.421875-2.214844 11.097656zm0 0"/><path d="m248.5 352h-144c-4.417969 0-8 3.582031-8 8s3.582031 8 8 8h144c4.417969 0 8-3.582031 8-8s-3.582031-8-8-8zm0 0"/><path d="m224.5 384h-96c-4.417969 0-8 3.582031-8 8s3.582031 8 8 8h96c4.417969 0 8-3.582031 8-8s-3.582031-8-8-8zm0 0"/><path d="m240.5 112h16v16h-16zm0 0"/><path d="m272.5 112h16v16h-16zm0 0"/><path d="m64.5 112h16v16h-16zm0 0"/><path d="m96.5 112h16v16h-16zm0 0"/></symbol><symbol id="team" viewBox="0 0 512 512"><title>team</title><g> <g> <path d="M451.72,237.26c-17.422-8.71-50.087-8.811-51.469-8.811c-4.142,0-7.5,3.358-7.5,7.5c0,4.142,3.358,7.5,7.5,7.5 c8.429,0.001,32.902,1.299,44.761,7.228c1.077,0.539,2.221,0.793,3.348,0.793c2.751,0,5.4-1.52,6.714-4.147 C456.927,243.618,455.425,239.113,451.72,237.26z"/> </g> </g><g> <g> <path d="M489.112,344.041l-30.975-8.85c-1.337-0.382-2.271-1.62-2.271-3.011v-10.339c2.52-1.746,4.924-3.7,7.171-5.881 c10.89-10.568,16.887-24.743,16.887-39.915v-14.267l2.995-5.989c3.287-6.575,5.024-13.936,5.024-21.286v-38.65 c0-4.142-3.358-7.5-7.5-7.5H408.27c-26.244,0-47.596,21.352-47.596,47.596v0.447c0,6.112,1.445,12.233,4.178,17.699l3.841,7.682 v12.25c0,19.414,9.567,36.833,24.058,47.315l0.002,10.836c0,1.671,0,2.363-6.193,4.133l-15.114,4.318l-43.721-15.898 c0.157-2.063-0.539-4.161-2.044-5.742l-13.971-14.678v-24.64c1.477-1.217,2.933-2.467,4.344-3.789 c17.625-16.52,27.733-39.844,27.733-63.991v-19.678c5.322-11.581,8.019-23.836,8.019-36.457v-80.19c0-4.142-3.358-7.5-7.5-7.5 H232.037c-39.51,0-71.653,32.144-71.653,71.653v16.039c0,12.621,2.697,24.876,8.019,36.457v16.931 c0,28.036,12.466,53.294,32.077,69.946v25.22l-13.971,14.678c-1.505,1.581-2.201,3.679-2.044,5.742l-46.145,16.779 c-3.344,1.216-6.451,2.863-9.272,4.858l-7.246-3.623c21.57-9.389,28.403-22.594,28.731-23.25c1.056-2.111,1.056-4.597,0-6.708 c-5.407-10.814-6.062-30.635-6.588-46.561c-0.175-5.302-0.341-10.311-0.658-14.771c-2.557-35.974-29.905-63.103-63.615-63.103 s-61.059,27.128-63.615,63.103c-0.317,4.461-0.483,9.47-0.658,14.773c-0.526,15.925-1.182,35.744-6.588,46.558 c-1.056,2.111-1.056,4.597,0,6.708c0.328,0.656,7.147,13.834,28.76,23.234l-20.127,10.063C6.684,358.176,0,368.991,0,381.02 v55.409c0,4.142,3.358,7.5,7.5,7.5s7.5-3.358,7.5-7.5V381.02c0-6.312,3.507-11.987,9.152-14.81l25.063-12.531l8.718,8.285 c6.096,5.793,13.916,8.688,21.739,8.688c7.821,0,15.645-2.897,21.739-8.688l8.717-8.284l8.172,4.086 c-3.848,6.157-6.032,13.377-6.032,20.94v57.725c0,4.142,3.358,7.5,7.5,7.5c4.142,0,7.5-3.358,7.5-7.5v-57.725 c0-10.296,6.501-19.578,16.178-23.097l48.652-17.691l20.253,30.381c2.589,3.884,6.738,6.375,11.383,6.835 c0.518,0.051,1.033,0.076,1.547,0.076c4.098,0,8.023-1.613,10.957-4.546l12.356-12.356v78.124c0,4.142,3.358,7.5,7.5,7.5 c4.142,0,7.5-3.358,7.5-7.5v-78.124l12.356,12.356c2.933,2.934,6.858,4.547,10.957,4.547c0.513,0,1.029-0.025,1.546-0.076 c4.646-0.46,8.795-2.951,11.384-6.835l20.254-30.38l48.651,17.691c9.676,3.519,16.178,12.801,16.178,23.097v57.725 c0,4.142,3.358,7.5,7.5,7.5c4.142,0,7.5-3.358,7.5-7.5v-57.725c0-10.428-4.143-20.208-11.093-27.441l1.853-0.529 c1.869-0.534,4.419-1.265,6.979-2.52l19.149,19.149v69.066c0,4.142,3.358,7.5,7.5,7.5c4.142,0,7.5-3.358,7.5-7.5v-69.066 l19.016-19.016c1.011,0.514,2.073,0.948,3.191,1.267l30.976,8.85c7.07,2.02,12.009,8.567,12.009,15.921v62.044 c0,4.142,3.358,7.5,7.5,7.5c4.142,0,7.5-3.358,7.5-7.5v-62.044C512,360.371,502.588,347.892,489.112,344.041z M48.115,330.794 c-14.029-5.048-21.066-11.778-24.07-15.453c2.048-5.354,3.376-11.486,4.275-17.959c4.136,9.917,11.063,18.383,19.795,24.423 V330.794z M91.08,351.092c-6.397,6.078-16.418,6.077-22.813-0.001l-6.975-6.628c1.177-2.205,1.824-4.705,1.824-7.324v-7.994 c5.232,1.635,10.794,2.517,16.558,2.517c5.757,0,11.316-0.886,16.557-2.512l-0.001,7.988c0,2.62,0.646,5.121,1.824,7.327 L91.08,351.092z M79.676,316.662c-22.396,0-40.615-18.22-40.615-40.615c0-4.142-3.358-7.5-7.5-7.5c-0.42,0-0.83,0.043-1.231,0.11 c0.022-0.645,0.043-1.291,0.065-1.93c0.167-5.157,0.328-10.028,0.625-14.206c0.958-13.476,6.343-25.894,15.163-34.968 c8.899-9.156,20.793-14.198,33.491-14.198s24.591,5.042,33.491,14.198c8.82,9.074,14.205,21.492,15.163,34.968 c0.296,4.177,0.458,9.047,0.628,14.203c0.015,0.443,0.03,0.892,0.045,1.338c-8.16-12.572-20.762-21.837-37.045-27.069 c-15.043-4.833-27.981-4.534-28.527-4.52c-1.964,0.055-3.828,0.877-5.191,2.291l-13.532,14.034 c-2.875,2.982-2.789,7.73,0.193,10.605s7.73,2.788,10.605-0.193l11.26-11.677c9.697,0.474,40.894,4.102,53.027,30.819 C116.738,302.04,99.816,316.662,79.676,316.662z M111.229,330.819l0.001-8.945c8.725-6.007,15.662-14.457,19.801-24.449 c0.899,6.458,2.226,12.576,4.27,17.918C132.314,318.983,125.244,325.773,111.229,330.819z M183.403,209.145v-18.608 c0-1.129-0.255-2.244-0.746-3.261c-4.826-9.994-7.273-20.598-7.273-31.518V139.72c0-31.239,25.415-56.653,56.653-56.653h104.769 v72.692c0,10.92-2.447,21.524-7.273,31.518c-0.491,1.017-0.746,2.132-0.746,3.261v21.355c0,20.311-8.165,39.15-22.991,53.047 c-1.851,1.734-3.772,3.36-5.758,4.875c-0.044,0.03-0.086,0.063-0.129,0.094c-13.889,10.545-30.901,15.67-48.667,14.519 C213.201,281.965,183.403,248.897,183.403,209.145z M225.632,360.056c-0.052,0.052-0.173,0.175-0.418,0.149 c-0.244-0.024-0.34-0.167-0.381-0.229l-23.325-34.988l7.506-7.887l35.385,24.187L225.632,360.056z M256.095,331.113 l-40.615-27.762v-14c10.509,5.681,22.276,9.234,34.791,10.044c1.977,0.128,3.942,0.191,5.901,0.191 c14.341,0,28.143-3.428,40.538-9.935v13.7L256.095,331.113z M287.357,359.978c-0.041,0.062-0.137,0.205-0.381,0.229 c-0.245,0.031-0.365-0.098-0.418-0.149l-18.767-18.767l35.385-24.188l7.507,7.887L287.357,359.978z M424.308,353.65l-17.02-17.019 c0.297-1.349,0.465-2.826,0.464-4.455l-0.001-3.165c4.723,1.55,9.701,2.47,14.852,2.624c0.578,0.018,1.151,0.026,1.727,0.026 c5.692,0,11.248-0.86,16.536-2.501v3.02c0,1.496,0.188,2.962,0.542,4.371L424.308,353.65z M452.591,305.196 c-7.949,7.714-18.45,11.788-29.537,11.446c-21.704-0.651-39.361-19.768-39.361-42.613v-14.021c0-1.165-0.271-2.313-0.792-3.354 l-4.633-9.266c-1.697-3.395-2.594-7.195-2.594-10.991v-0.447c0-17.974,14.623-32.596,32.596-32.596h64.673v31.15 c0,5.034-1.19,10.075-3.441,14.578l-3.786,7.572c-0.521,1.042-0.792,2.189-0.792,3.354v16.038 C464.924,287.126,460.544,297.478,452.591,305.196z"/> </g> </g><g> <g> <path d="M472.423,380.814c-4.142,0-7.5,3.358-7.5,7.5v48.115c0,4.142,3.358,7.5,7.5,7.5c4.142,0,7.5-3.358,7.5-7.5v-48.115 C479.923,384.173,476.565,380.814,472.423,380.814z"/> </g> </g><g> <g> <path d="M39.577,390.728c-4.142,0-7.5,3.358-7.5,7.5v38.201c0,4.142,3.358,7.5,7.5,7.5c4.142,0,7.5-3.358,7.5-7.5v-38.201 C47.077,394.087,43.719,390.728,39.577,390.728z"/> </g> </g><g> <g> <path d="M317.532,158.475c-28.366-28.366-87.715-22.943-111.917-19.295c-7.623,1.149-13.155,7.6-13.155,15.339v17.278 c0,4.142,3.358,7.5,7.5,7.5c4.142,0,7.5-3.358,7.5-7.5v-17.279c0-0.255,0.168-0.473,0.392-0.507 c9.667-1.457,28.85-3.705,48.725-2.38c23.388,1.557,40.328,7.428,50.349,17.45c2.929,2.929,7.678,2.929,10.606,0 C320.461,166.152,320.461,161.403,317.532,158.475z"/> </g> </g><g> <g> <path d="M167.884,396.853c-4.142,0-7.5,3.358-7.5,7.5v32.077c0,4.142,3.358,7.5,7.5,7.5c4.142,0,7.5-3.358,7.5-7.5v-32.077 C175.384,400.212,172.026,396.853,167.884,396.853z"/> </g> </g><g> <g> <path d="M344.306,396.853c-4.142,0-7.5,3.358-7.5,7.5v32.077c0,4.142,3.358,7.5,7.5,7.5c4.142,0,7.5-3.358,7.5-7.5v-32.077 C351.806,400.212,348.448,396.853,344.306,396.853z"/> </g> </g></symbol><symbol id="group" viewBox="0 0 380.65 380.65"><title>group</title><g> <g> <path d="M310.805,268.65h-44.84c-9.267-0.006-18.377,2.392-26.44,6.96c-6.863,3.893-12.8,9.229-17.4,15.64 c-3.064-0.535-6.169-0.802-9.28-0.8h-44.88c-3.111-0.003-6.216,0.265-9.28,0.8c-4.599-6.412-10.536-11.748-17.4-15.64 c-8.063-4.568-17.173-6.966-26.44-6.96h-44.84c-29.796,0.066-53.934,24.204-54,54v30.44c0.022,3.188,2.612,5.76,5.8,5.76h92v16 c0,3.203,2.597,5.8,5.8,5.8h141.44c3.203,0,5.8-2.597,5.8-5.8v-16h92c3.203,0,5.8-2.597,5.8-5.8v-30.4 C364.579,292.916,340.538,268.804,310.805,268.65z M114.405,339.25v1.24c0,0.56,0,1.08,0,1.64v2.32v2.8h-86.8v-24.6 c0.066-23.39,19.01-42.334,42.4-42.4h44.84c7.261-0.008,14.4,1.866,20.72,5.44c4.237,2.396,8.038,5.494,11.24,9.16 C128.756,302.684,116.36,319.672,114.405,339.25z M255.125,344.45v24.64h-129.56v-25.08c0-0.453,0-0.893,0-1.32 c0-0.693,0-1.387,0-2.08v-1.04c0-0.4,0-0.8,0-1.2v-1.28v-0.4v-0.44v-0.88l0.24-0.96l0.4-1.44l0.28-0.96 c5.746-17.415,21.982-29.206,40.32-29.28l1.16-0.64h44.88c21.297,0.078,39.258,15.885,42.04,37c0,0.88,0,1.76,0.24,2.64 C255.125,342.637,255.125,343.543,255.125,344.45z M353.205,347.29h-86.4v-3.48c0-0.44,0-0.88,0-1.32c0-0.453,0-0.907,0-1.36 c0-0.64,0-1.32,0-1.96v-0.6v-0.68v-1.24v-0.2v-0.48v-0.44v-0.28v-0.52v-0.56v-0.28v-0.36v-0.36v-0.36v-0.88v-0.4v-0.52v-0.52 l-0.28-1v-0.4v-0.36v-0.28v-0.4v-0.52l-0.56-1.56c-5.212-13.855-15.842-24.99-29.44-30.84c2.406-3.562,5.332-6.744,8.68-9.44 c6.32-3.574,13.459-5.448,20.72-5.44h44.88c23.389,0.066,42.334,19.01,42.4,42.4V347.29z"/> </g> </g><g> <g> <circle cx="190.645" cy="77.85" r="6.56"/> </g> </g><g> <g> <path d="M121.285,189.17c-7.643-7.688-18.039-12.008-28.88-12c-22.555-0.02-40.856,18.248-40.876,40.804 c-0.02,22.555,18.248,40.856,40.804,40.876s40.856-18.248,40.876-40.804C133.218,207.221,128.93,196.835,121.285,189.17z M113.085,238.65c-11.417,11.421-29.93,11.425-41.352,0.008c-11.421-11.417-11.425-29.93-0.008-41.352 c11.417-11.421,29.93-11.425,41.352-0.008c5.484,5.482,8.566,12.918,8.568,20.672C121.656,225.728,118.576,233.17,113.085,238.65z "/> </g> </g><g> <g> <circle cx="233.045" cy="77.85" r="6.56"/> </g> </g><g> <g> <path d="M258.725,22.73c-19.566-15.048-43.638-23.053-68.32-22.72c-24.682-0.333-48.753,7.672-68.32,22.72 c-17.92,14.32-29,34.24-29,56.28c0.022,11.194,2.87,22.201,8.28,32c5.148,9.257,12.066,17.412,20.36,24l-4.6,30.6 c-0.479,3.145,1.683,6.082,4.828,6.561c1.303,0.198,2.634-0.056,3.772-0.721l31.28-18.24c4.957,1.474,10.009,2.61,15.12,3.4 c6.062,0.934,12.187,1.402,18.32,1.4c24.682,0.333,48.754-7.672,68.32-22.72c17.88-14.36,28.96-34.24,28.96-56.28 S276.645,37.05,258.725,22.73z M251.525,126.33c-17.545,13.349-39.077,20.395-61.12,20c-5.53,0.008-11.053-0.406-16.52-1.24 c-5.424-0.811-10.774-2.055-16-3.72c-1.551-0.489-3.236-0.301-4.64,0.52l-22.84,13.48l3.32-22c0.317-2.149-0.594-4.295-2.36-5.56 c-8.204-5.937-15.027-13.578-20-22.4c-4.448-8.089-6.786-17.169-6.8-26.4c0-18.4,9.4-35.12,24.6-47.28 c17.545-13.349,39.077-20.395,61.12-20c22.043-0.395,43.575,6.651,61.12,20c15.2,12,24.6,28.88,24.6,47.28 C276.005,97.41,266.725,114.13,251.525,126.33z"/> </g> </g><g> <g> <path d="M288.438,177.13c-22.555-0.02-40.856,18.248-40.876,40.804c-0.01,10.825,4.279,21.212,11.924,28.876 c7.643,7.688,18.039,12.008,28.88,12c22.555,0.02,40.856-18.248,40.876-40.804S310.993,177.15,288.438,177.13z M309.085,238.633 c-11.417,11.421-29.93,11.425-41.352,0.008c-5.484-5.482-8.566-12.918-8.568-20.672c-0.011-7.758,3.069-15.2,8.56-20.68 c11.417-11.421,29.93-11.425,41.352-0.008C320.498,208.698,320.502,227.212,309.085,238.633z"/> </g> </g><g> <g> <circle cx="148.245" cy="77.85" r="6.56"/> </g> </g><g> <g> <path d="M219.225,210.83c-7.652-7.626-18.017-11.905-28.82-11.9c-10.841-0.008-21.237,4.312-28.88,12 c-15.906,15.961-15.861,41.794,0.1,57.7c15.961,15.906,41.794,15.861,57.7-0.1S235.186,226.736,219.225,210.83z M190.397,269.042 c-16.149-0.005-29.236-13.1-29.232-29.248s13.1-29.236,29.248-29.232c7.754,0.002,15.19,3.084,20.672,8.568 c5.491,5.48,8.571,12.922,8.56,20.68C219.64,255.959,206.545,269.046,190.397,269.042z"/> </g> </g></symbol><symbol id="logout" viewBox="0 0 512.001 512.001"><title>logout</title><g> <g> <path d="M505.651,243.741l-54.782-38.622c-9.916-6.99-23.644,0.116-23.644,12.26v77.242c0,12.194,13.757,19.227,23.643,12.26 l54.782-38.621C514.129,262.282,514.106,249.704,505.651,243.741z"/> </g> </g><g> <g> <path d="M430.46,352.315c-7.169-4.146-16.346-1.698-20.495,5.474c-35.236,60.915-101.1,101.807-176.367,101.807 C121.334,459.597,30,368.263,30,256.001S121.334,52.404,233.597,52.404c75.317,0,141.153,40.932,176.366,101.806 c4.148,7.172,13.327,9.619,20.495,5.474c7.171-4.148,9.621-13.324,5.474-20.495C395.408,69.133,319.721,22.404,233.597,22.404 C104.487,22.404,0,126.88,0,256.001c0,129.11,104.476,233.596,233.597,233.596c86.161,0,161.829-46.762,202.337-116.787 C440.081,365.639,437.631,356.464,430.46,352.315z"/> </g> </g><g> <g> <path d="M164.192,241.001c-8.284,0-15,6.715-15,15c0,8.284,6.716,15,15,15h233.031v-30H164.192z"/> </g> </g></symbol><symbol id="checklist" viewBox="0 -15 966.25045 966"><title>checklist</title><path d="M 77.921875 841.703125 L 483.125 841.703125 L 483.125 810.527344 L 77.921875 810.527344 C 52.101562 810.527344 31.167969 789.59375 31.167969 763.773438 L 31.167969 78.046875 C 31.167969 52.21875 52.101562 31.292969 77.921875 31.292969 L 763.648438 31.292969 C 789.480469 31.292969 810.402344 52.21875 810.402344 78.046875 L 810.402344 436.492188 L 841.578125 436.492188 L 841.578125 78.046875 C 841.527344 35.03125 806.667969 0.175781 763.648438 0.125 L 77.921875 0.125 C 34.914062 0.175781 0.0546875 35.03125 0 78.046875 L 0 763.773438 C 0.0546875 806.789062 34.914062 841.644531 77.921875 841.703125 Z M 77.921875 841.703125 " style=" stroke:none;fill-rule:nonzero;fill:rgb(0%,0%,0%);fill-opacity:1;"/><path d="M 62.34375 62.46875 L 93.507812 62.46875 L 93.507812 93.632812 L 62.34375 93.632812 Z M 62.34375 62.46875 " style=" stroke:none;fill-rule:nonzero;fill:rgb(0%,0%,0%);fill-opacity:1;"/><path d="M 124.675781 62.46875 L 155.851562 62.46875 L 155.851562 93.632812 L 124.675781 93.632812 Z M 124.675781 62.46875 " style=" stroke:none;fill-rule:nonzero;fill:rgb(0%,0%,0%);fill-opacity:1;"/><path d="M 187.015625 62.46875 L 218.1875 62.46875 L 218.1875 93.632812 L 187.015625 93.632812 Z M 187.015625 62.46875 " style=" stroke:none;fill-rule:nonzero;fill:rgb(0%,0%,0%);fill-opacity:1;"/><path d="M 62.34375 124.800781 L 779.234375 124.800781 L 779.234375 155.976562 L 62.34375 155.976562 Z M 62.34375 124.800781 " style=" stroke:none;fill-rule:nonzero;fill:rgb(0%,0%,0%);fill-opacity:1;"/><path d="M 222.753906 191.707031 L 183.167969 231.292969 C 149.707031 209.140625 104.898438 215.9375 79.503906 247.015625 C 54.113281 278.089844 56.390625 323.355469 84.765625 351.726562 C 113.136719 380.109375 158.40625 382.386719 189.484375 356.992188 C 220.558594 331.601562 227.359375 286.785156 205.203125 253.332031 L 244.785156 213.746094 Z M 140.257812 342.984375 C 114.441406 342.984375 93.507812 322.054688 93.507812 296.234375 C 93.507812 270.410156 114.441406 249.484375 140.257812 249.484375 C 147.210938 249.507812 154.050781 251.101562 160.289062 254.152344 L 129.246094 285.199219 L 151.277344 307.238281 L 182.34375 276.210938 C 185.394531 282.445312 186.992188 289.285156 187.015625 296.234375 C 187.015625 322.054688 166.089844 342.984375 140.257812 342.984375 Z M 140.257812 342.984375 " style=" stroke:none;fill-rule:nonzero;fill:rgb(0%,0%,0%);fill-opacity:1;"/><path d="M 264.941406 249.484375 L 529.875 249.484375 L 529.875 280.648438 L 264.941406 280.648438 Z M 264.941406 249.484375 " style=" stroke:none;fill-rule:nonzero;fill:rgb(0%,0%,0%);fill-opacity:1;"/><path d="M 264.941406 311.820312 L 374.03125 311.820312 L 374.03125 342.984375 L 264.941406 342.984375 Z M 264.941406 311.820312 " style=" stroke:none;fill-rule:nonzero;fill:rgb(0%,0%,0%);fill-opacity:1;"/><path d="M 405.203125 311.820312 L 623.382812 311.820312 L 623.382812 342.984375 L 405.203125 342.984375 Z M 405.203125 311.820312 " style=" stroke:none;fill-rule:nonzero;fill:rgb(0%,0%,0%);fill-opacity:1;"/><path d="M 561.046875 249.484375 L 716.894531 249.484375 L 716.894531 280.648438 L 561.046875 280.648438 Z M 561.046875 249.484375 " style=" stroke:none;fill-rule:nonzero;fill:rgb(0%,0%,0%);fill-opacity:1;"/><path d="M 222.753906 378.722656 L 183.167969 418.308594 C 149.707031 396.15625 104.898438 402.953125 79.503906 434.03125 C 54.113281 465.109375 56.390625 510.371094 84.765625 538.75 C 113.136719 567.125 158.40625 569.402344 189.484375 544.007812 C 220.558594 518.613281 227.359375 473.8125 205.203125 440.347656 L 244.785156 400.761719 Z M 140.257812 530.003906 C 114.441406 530.003906 93.507812 509.070312 93.507812 483.25 C 93.507812 457.425781 114.441406 436.492188 140.257812 436.492188 C 147.210938 436.519531 154.050781 438.117188 160.289062 441.167969 L 129.246094 472.222656 L 151.277344 494.253906 L 182.34375 463.222656 C 185.394531 469.460938 186.992188 476.300781 187.015625 483.25 C 187.015625 509.070312 166.089844 530.003906 140.257812 530.003906 Z M 140.257812 530.003906 " style=" stroke:none;fill-rule:nonzero;fill:rgb(0%,0%,0%);fill-opacity:1;"/><path d="M 264.941406 436.492188 L 529.875 436.492188 L 529.875 467.664062 L 264.941406 467.664062 Z M 264.941406 436.492188 " style=" stroke:none;fill-rule:nonzero;fill:rgb(0%,0%,0%);fill-opacity:1;"/><path d="M 264.941406 498.835938 L 374.03125 498.835938 L 374.03125 530.003906 L 264.941406 530.003906 Z M 264.941406 498.835938 " style=" stroke:none;fill-rule:nonzero;fill:rgb(0%,0%,0%);fill-opacity:1;"/><path d="M 405.203125 498.835938 L 529.875 498.835938 L 529.875 530.003906 L 405.203125 530.003906 Z M 405.203125 498.835938 " style=" stroke:none;fill-rule:nonzero;fill:rgb(0%,0%,0%);fill-opacity:1;"/><path d="M 561.046875 436.492188 L 623.382812 436.492188 L 623.382812 467.664062 L 561.046875 467.664062 Z M 561.046875 436.492188 " style=" stroke:none;fill-rule:nonzero;fill:rgb(0%,0%,0%);fill-opacity:1;"/><path d="M 222.753906 565.738281 L 183.167969 605.324219 C 149.707031 583.171875 104.898438 589.96875 79.503906 621.046875 C 54.113281 652.125 56.390625 697.386719 84.765625 725.765625 C 113.136719 754.144531 158.40625 756.414062 189.484375 731.023438 C 220.558594 705.628906 227.359375 660.824219 205.203125 627.359375 L 244.785156 587.777344 Z M 140.257812 717.019531 C 114.441406 717.019531 93.507812 696.085938 93.507812 670.265625 C 93.507812 644.441406 114.441406 623.511719 140.257812 623.511719 C 147.210938 623.535156 154.050781 625.128906 160.289062 628.183594 L 129.246094 659.238281 L 151.277344 681.269531 L 182.34375 650.238281 C 185.394531 656.476562 186.992188 663.320312 187.015625 670.265625 C 187.015625 696.085938 166.089844 717.019531 140.257812 717.019531 Z M 140.257812 717.019531 " style=" stroke:none;fill-rule:nonzero;fill:rgb(0%,0%,0%);fill-opacity:1;"/><path d="M 264.941406 623.511719 L 467.539062 623.511719 L 467.539062 654.6875 L 264.941406 654.6875 Z M 264.941406 623.511719 " style=" stroke:none;fill-rule:nonzero;fill:rgb(0%,0%,0%);fill-opacity:1;"/><path d="M 264.941406 685.851562 L 374.03125 685.851562 L 374.03125 717.019531 L 264.941406 717.019531 Z M 264.941406 685.851562 " style=" stroke:none;fill-rule:nonzero;fill:rgb(0%,0%,0%);fill-opacity:1;"/><path d="M 405.203125 685.851562 L 467.539062 685.851562 L 467.539062 717.019531 L 405.203125 717.019531 Z M 405.203125 685.851562 " style=" stroke:none;fill-rule:nonzero;fill:rgb(0%,0%,0%);fill-opacity:1;"/><path d="M 732.484375 935.210938 C 861.597656 935.210938 966.25 830.539062 966.25 701.4375 C 966.25 572.324219 861.597656 467.664062 732.484375 467.664062 C 603.371094 467.664062 498.710938 572.324219 498.710938 701.4375 C 498.863281 830.480469 603.433594 935.054688 732.484375 935.210938 Z M 732.484375 498.835938 C 844.371094 498.835938 935.085938 589.542969 935.085938 701.4375 C 935.085938 813.332031 844.371094 904.035156 732.484375 904.035156 C 620.585938 904.035156 529.875 813.332031 529.875 701.4375 C 530.007812 589.597656 620.636719 498.960938 732.484375 498.835938 Z M 732.484375 498.835938 " style=" stroke:none;fill-rule:nonzero;fill:rgb(0%,0%,0%);fill-opacity:1;"/><path d="M 637.417969 710.050781 L 609.519531 723.980469 L 640.691406 786.320312 C 642.925781 790.804688 647.191406 793.941406 652.140625 794.742188 C 652.945312 794.867188 653.75 794.933594 654.558594 794.945312 C 658.6875 794.945312 662.652344 793.300781 665.582031 790.378906 L 852.589844 603.363281 L 830.558594 581.324219 L 658.824219 753.050781 Z M 637.417969 710.050781 " style=" stroke:none;fill-rule:nonzero;fill:rgb(0%,0%,0%);fill-opacity:1;"/></symbol><symbol id="organize" viewBox="0 0 512 512"><title>organize</title><path d="m354 64h-54v-2.574219c0-15.976562-12.996094-28.976562-28.976562-28.976562h-18.542969c-8.460938-19.433594-27.839844-32.449219-49.515625-32.449219h-1.929688c-21.675781 0-41.054687 13.015625-49.515625 32.449219h-18.542969c-15.980468 0-28.976562 13-28.976562 28.976562v2.574219h-54c-31.308594 0-50 14.953125-50 40v358c0 27.570312 22.429688 50 50 50h304c27.570312 0 50-22.429688 50-50v-226.332031c0-5.523438-4.476562-10-10-10s-10 4.476562-10 10v226.332031c0 16.542969-13.457031 30-30 30h-304c-16.542969 0-30-13.457031-30-30v-358c0-4.945312 0-20 30-20h54v14c0 5.523438 4.476562 10 10 10h176c5.523438 0 10-4.476562 10-10v-14h54c16.542969 0 30 13.457031 30 30v33.667969c0 5.523437 4.476562 10 10 10s10-4.476563 10-10v-33.667969c0-27.570312-22.429688-50-50-50zm-74 24h-156v-26.574219c0-4.949219 4.027344-8.976562 8.976562-8.976562h25.601563c4.515625 0 8.46875-3.023438 9.652344-7.378907 4.003906-14.761718 17.496093-25.070312 32.804687-25.070312h1.929688c15.308594 0 28.800781 10.308594 32.808594 25.070312 1.179687 4.355469 5.136718 7.378907 9.648437 7.378907h25.605469c4.949218 0 8.972656 4.027343 8.972656 8.976562zm0 0"/><path d="m394 179.511719c-2.628906 0-5.210938 1.058593-7.070312 2.917969-1.859376 1.871093-2.929688 4.441406-2.929688 7.070312 0 2.640625 1.070312 5.210938 2.929688 7.078125 1.859374 1.863281 4.441406 2.933594 7.070312 2.933594s5.210938-1.070313 7.070312-2.933594c1.859376-1.859375 2.929688-4.4375 2.929688-7.078125 0-2.628906-1.070312-5.210938-2.929688-7.070312-1.859374-1.859376-4.441406-2.917969-7.070312-2.917969zm0 0"/><path d="m502 322c-2.628906 0-5.210938 1.070312-7.070312 2.929688-1.859376 1.859374-2.929688 4.441406-2.929688 7.070312s1.070312 5.210938 2.929688 7.070312c1.859374 1.859376 4.441406 2.929688 7.070312 2.929688s5.210938-1.070312 7.070312-2.929688c1.859376-1.859374 2.929688-4.441406 2.929688-7.070312s-1.070312-5.210938-2.929688-7.070312c-1.859374-1.859376-4.441406-2.929688-7.070312-2.929688zm0 0"/><path d="m511.128906 185.421875-32-71.507813c-1.613281-3.597656-5.1875-5.914062-9.128906-5.914062s-7.515625 2.316406-9.128906 5.914062l-32 71.507813c-.574219 1.28125-.871094 2.675781-.871094 4.082031v298.621094c0 13.164062 10.710938 23.875 23.875 23.875h36.25c13.164062 0 23.875-10.710938 23.875-23.875v-112.457031c0-5.523438-4.476562-10-10-10s-10 4.476562-10 10v69.917969h-44v-246.082032h44v92.296875c0 5.523438 4.476562 10 10 10s10-4.476562 10-10v-102.296875c0-1.40625-.296875-2.800781-.871094-4.082031zm-41.128906-42.941406 16.570312 37.023437h-33.140624zm22 323.105469v22.539062c0 2.136719-1.738281 3.875-3.875 3.875h-36.25c-2.136719 0-3.875-1.738281-3.875-3.875v-22.539062zm0 0"/><path d="m117.667969 144c-23.160157 0-42 18.839844-42 42s18.839843 42 42 42c23.15625 0 42-18.839844 42-42s-18.84375-42-42-42zm0 64c-12.132813 0-22-9.867188-22-22s9.867187-22 22-22c12.128906 0 22 9.867188 22 22s-9.871094 22-22 22zm0 0"/><path d="m117.667969 264c-23.160157 0-42 18.839844-42 42s18.839843 42 42 42c23.15625 0 42-18.839844 42-42s-18.84375-42-42-42zm0 64c-12.132813 0-22-9.867188-22-22s9.867187-22 22-22c12.128906 0 22 9.867188 22 22s-9.871094 22-22 22zm0 0"/><path d="m117.667969 384c-23.160157 0-42 18.839844-42 42s18.839843 42 42 42c23.15625 0 42-18.839844 42-42s-18.84375-42-42-42zm0 64c-12.132813 0-22-9.867188-22-22s9.867187-22 22-22c12.128906 0 22 9.867188 22 22s-9.871094 22-22 22zm0 0"/><path d="m318.332031 208h-114.664062c-5.523438 0-10 4.476562-10 10s4.476562 10 10 10h114.667969c5.519531 0 10-4.476562 10-10s-4.480469-10-10.003907-10zm0 0"/><path d="m318.332031 160h-114.664062c-5.523438 0-10 4.476562-10 10s4.476562 10 10 10h114.667969c5.519531 0 10-4.476562 10-10s-4.480469-10-10.003907-10zm0 0"/><path d="m318.332031 328h-114.664062c-5.523438 0-10 4.476562-10 10s4.476562 10 10 10h114.667969c5.519531 0 10-4.476562 10-10s-4.480469-10-10.003907-10zm0 0"/><path d="m318.332031 280h-114.664062c-5.523438 0-10 4.476562-10 10s4.476562 10 10 10h114.667969c5.519531 0 10-4.476562 10-10s-4.480469-10-10.003907-10zm0 0"/><path d="m318.332031 448h-114.664062c-5.523438 0-10 4.476562-10 10s4.476562 10 10 10h114.667969c5.519531 0 10-4.476562 10-10s-4.480469-10-10.003907-10zm0 0"/><path d="m318.332031 400h-114.664062c-5.523438 0-10 4.476562-10 10s4.476562 10 10 10h114.667969c5.519531 0 10-4.476562 10-10s-4.480469-10-10.003907-10zm0 0"/></symbol><symbol id="list" viewBox="0 0 60 60"><title>list</title><path d="M38.914,0H6.5v60h47V14.586L38.914,0z M39.5,3.414L50.086,14H39.5V3.414z M8.5,58V2h29v14h14v42H8.5z"/><path d="M42.5,21h-16c-0.552,0-1,0.447-1,1s0.448,1,1,1h16c0.552,0,1-0.447,1-1S43.052,21,42.5,21z"/><path d="M22.875,18.219l-4.301,3.441l-1.367-1.367c-0.391-0.391-1.023-0.391-1.414,0s-0.391,1.023,0,1.414l2,2 C17.987,23.901,18.243,24,18.5,24c0.22,0,0.441-0.072,0.624-0.219l5-4c0.432-0.346,0.501-0.975,0.156-1.406 C23.936,17.943,23.306,17.874,22.875,18.219z"/><path d="M42.5,32h-16c-0.552,0-1,0.447-1,1s0.448,1,1,1h16c0.552,0,1-0.447,1-1S43.052,32,42.5,32z"/><path d="M22.875,29.219l-4.301,3.441l-1.367-1.367c-0.391-0.391-1.023-0.391-1.414,0s-0.391,1.023,0,1.414l2,2 C17.987,34.901,18.243,35,18.5,35c0.22,0,0.441-0.072,0.624-0.219l5-4c0.432-0.346,0.501-0.975,0.156-1.406 C23.936,28.943,23.306,28.874,22.875,29.219z"/><path d="M42.5,43h-16c-0.552,0-1,0.447-1,1s0.448,1,1,1h16c0.552,0,1-0.447,1-1S43.052,43,42.5,43z"/><path d="M22.875,40.219l-4.301,3.441l-1.367-1.367c-0.391-0.391-1.023-0.391-1.414,0s-0.391,1.023,0,1.414l2,2 C17.987,45.901,18.243,46,18.5,46c0.22,0,0.441-0.072,0.624-0.219l5-4c0.432-0.346,0.501-0.975,0.156-1.406 C23.936,39.943,23.306,39.874,22.875,40.219z"/></symbol><symbol id="google-play" viewBox="0 0 512.029 512.029"><title>google-play</title><g> <g> <path d="M111.758,8.189C91.726-2.883,68.206-2.627,48.302,8.349l233.28,215.2l78.368-78.368L111.758,8.189z"/> </g> </g><g> <g> <path d="M24.974,30.365c-5.696,9.312-8.96,19.968-8.96,31.264v388.672c0,10.944,2.976,21.376,8.352,30.496l234.592-234.592 L24.974,30.365z"/> </g> </g><g> <g> <path d="M463.854,202.525l-74.752-41.248l-84,83.968l102.944,94.944l55.84-30.816c20.096-11.136,32.128-31.104,32.128-53.44 C495.982,233.597,483.982,213.629,463.854,202.525z"/> </g> </g><g> <g> <path d="M282.478,267.901L47.246,503.133c10.208,5.824,21.408,8.896,32.672,8.896c10.88,0,21.824-2.752,31.84-8.288 l266.784-147.232L282.478,267.901z"/> </g> </g></symbol></svg>