<?xml version="1.0" encoding="utf-8"?>
<!-- Generator: Adobe Illustrator 19.0.0, SVG Export Plug-In . SVG Version: 6.00 Build 0)  -->
<svg version="1.1" id="Layer_1" xmlns="http://www.w3.org/2000/svg" xmlns:xlink="http://www.w3.org/1999/xlink" x="0px" y="0px"
	 viewBox="0 0 700 500" style="enable-background:new 0 0 700 500;" xml:space="preserve">
<style type="text/css">
	.st0{fill:#F9E0B4;}
	.st1{opacity:0.15;fill:#FF0000;}
	.st2{opacity:0.15;}
	.st3{fill:#FF0000;}
	.st4{fill:none;stroke:#F49A7A;stroke-width:3;stroke-miterlimit:10;}
</style>
<rect id="XMLID_1_" class="st0" width="700" height="500"/>
<circle id="XMLID_59_" class="st1" cx="200.9" cy="98.7" r="10.5"/>
<circle id="XMLID_12_" class="st1" cx="55.9" cy="30.7" r="10.5"/>
<circle id="XMLID_13_" class="st1" cx="60.9" cy="451.7" r="10.5"/>
<circle id="XMLID_6_" class="st1" cx="632.1" cy="451.9" r="12.7"/>
<circle id="XMLID_7_" class="st1" cx="375.1" cy="165.9" r="12.7"/>
<circle id="XMLID_8_" class="st1" cx="293.1" cy="419.9" r="12.7"/>
<circle id="XMLID_20_" class="st1" cx="435.1" cy="464.9" r="12.7"/>
<g id="XMLID_38_" class="st2">
	<path id="XMLID_36_" class="st3" d="M538.9,45.1L524,51.8c-1,0.4-2.2,0-2.6-1v0c-0.4-1,0-2.2,1-2.6l14.9-6.7c1-0.4,2.2,0,2.6,1v0
		C540.4,43.5,539.9,44.7,538.9,45.1z"/>
	<path id="XMLID_37_" class="st3" d="M532.2,54.9L525.5,40c-0.4-1,0-2.2,1-2.6l0,0c1-0.4,2.2,0,2.6,1l6.7,14.9c0.4,1,0,2.2-1,2.6
		l0,0C533.8,56.4,532.6,55.9,532.2,54.9z"/>
</g>
<g id="XMLID_3_" class="st2">
	<path id="XMLID_5_" class="st3" d="M126.5,303.6l-23.2-5.2c-1.6-0.3-2.5-1.9-2.2-3.5l0,0c0.3-1.6,1.9-2.5,3.5-2.2l23.2,5.2
		c1.6,0.3,2.5,1.9,2.2,3.5v0C129.6,303,128.1,304,126.5,303.6z"/>
	<path id="XMLID_4_" class="st3" d="M110.1,309.2l5.2-23.2c0.3-1.6,1.9-2.5,3.5-2.2h0c1.6,0.3,2.5,1.9,2.2,3.5l-5.2,23.2
		c-0.3,1.6-1.9,2.5-3.5,2.2l0,0C110.8,312.3,109.8,310.7,110.1,309.2z"/>
</g>
<g id="XMLID_24_" class="st2">
	<path id="XMLID_26_" class="st3" d="M176.2,467.7l-23.2-5.2c-1.6-0.3-2.5-1.9-2.2-3.5l0,0c0.3-1.6,1.9-2.5,3.5-2.2l23.2,5.2
		c1.6,0.3,2.5,1.9,2.2,3.5v0C179.3,467.1,177.7,468.1,176.2,467.7z"/>
	<path id="XMLID_25_" class="st3" d="M159.8,473.3L165,450c0.3-1.6,1.9-2.5,3.5-2.2l0,0c1.6,0.3,2.5,1.9,2.2,3.5l-5.2,23.2
		c-0.3,1.6-1.9,2.5-3.5,2.2l0,0C160.4,476.4,159.4,474.8,159.8,473.3z"/>
</g>
<g id="XMLID_14_" class="st2">
	<path id="XMLID_16_" class="st3" d="M323.1,298.2l-14.2-13c-0.9-0.9-1-2.4-0.1-3.3l0,0c0.9-0.9,2.4-1,3.3-0.1l14.2,13
		c0.9,0.9,1,2.4,0.1,3.3l0,0C325.6,299,324.1,299,323.1,298.2z"/>
	<path id="XMLID_15_" class="st3" d="M309.4,295.4l13-14.2c0.9-0.9,2.4-1,3.3-0.1l0,0c0.9,0.9,1,2.4,0.1,3.3l-13,14.2
		c-0.9,0.9-2.4,1-3.3,0.1l0,0C308.6,297.9,308.5,296.4,309.4,295.4z"/>
</g>
<g id="XMLID_27_" class="st2">
	<path id="XMLID_29_" class="st3" d="M371.8,39.6L357,26.1c-0.9-0.9-1-2.4-0.1-3.3l0.1-0.1c0.9-0.9,2.4-1,3.3-0.1L375,36.1
		c0.9,0.9,1,2.4,0.1,3.3l-0.1,0.1C374.2,40.4,372.7,40.5,371.8,39.6z"/>
	<path id="XMLID_28_" class="st3" d="M357.5,36.8L371,22c0.9-0.9,2.4-1,3.3-0.1l0.1,0.1c0.9,0.9,1,2.4,0.1,3.3L361,40.1
		c-0.9,0.9-2.4,1-3.3,0.1l-0.1-0.1C356.7,39.2,356.6,37.7,357.5,36.8z"/>
</g>
<g id="XMLID_21_" class="st2">
	<path id="XMLID_23_" class="st3" d="M110.7,179.2l-5.7-18.4c-0.4-1.2,0.3-2.5,1.5-2.9h0c1.2-0.4,2.5,0.3,2.9,1.5l5.7,18.4
		c0.4,1.2-0.3,2.5-1.5,2.9h0C112.3,181.1,111,180.4,110.7,179.2z"/>
	<path id="XMLID_22_" class="st3" d="M100.2,169.9l18.4-5.7c1.2-0.4,2.5,0.3,2.9,1.5h0c0.4,1.2-0.3,2.5-1.5,2.9l-18.4,5.7
		c-1.2,0.4-2.5-0.3-2.9-1.5l0,0C98.2,171.5,98.9,170.2,100.2,169.9z"/>
</g>
<g id="XMLID_9_" class="st2">
	<path id="XMLID_11_" class="st3" d="M440.9,273.9l-2.3-8.7c-0.2-0.6,0.2-1.2,0.8-1.3l0,0c0.6-0.2,1.2,0.2,1.3,0.8l2.3,8.7
		c0.2,0.6-0.2,1.2-0.8,1.3l0,0C441.6,274.8,441,274.4,440.9,273.9z"/>
	<path id="XMLID_10_" class="st3" d="M436.2,269.3l8.7-2.3c0.6-0.2,1.2,0.2,1.3,0.8l0,0c0.2,0.6-0.2,1.2-0.8,1.3l-8.7,2.3
		c-0.6,0.2-1.2-0.2-1.3-0.8l0,0C435.2,270,435.6,269.5,436.2,269.3z"/>
</g>
<polygon id="XMLID_2_" class="st4" points="495.9,140.7 483.5,135.5 471.1,130.3 481.9,122.2 492.6,114.1 494.2,127.4 "/>
<polygon id="XMLID_18_" class="st4" points="475.8,395.6 467.1,385.3 458.5,375 471.7,372.7 484.9,370.3 480.3,383 "/>
<polygon id="XMLID_19_" class="st4" points="557.8,293.6 549.1,283.3 540.5,273 553.7,270.7 566.9,268.3 562.3,281 "/>
</svg>
