<?xml version="1.0" encoding="utf-8"?>
<!-- Generator: Adobe Illustrator 19.0.0, SVG Export Plug-In . SVG Version: 6.00 Build 0)  -->
<svg version="1.1" id="Layer_1" xmlns="http://www.w3.org/2000/svg" xmlns:xlink="http://www.w3.org/1999/xlink" x="0px" y="0px"
	 viewBox="0 0 158.1 162.6" style="enable-background:new 0 0 158.1 162.6;" xml:space="preserve">
<style type="text/css">
	.st0{fill:url(#XMLID_109_);}
	.st1{fill:url(#XMLID_110_);}
	.st2{fill:url(#XMLID_111_);}
</style>
<linearGradient id="XMLID_109_" gradientUnits="userSpaceOnUse" x1="5.7023" y1="77.7865" x2="158" y2="77.7865">
	<stop  offset="0" style="stop-color:#F15A24"/>
	<stop  offset="1" style="stop-color:#FCEE21"/>
</linearGradient>
<path id="XMLID_25_" class="st0" d="M158-1v157.6C74.2,156.6,5.7,88.2,5.7,4c0-1.6,0.2-3,0.2-5H158z"/>
<linearGradient id="XMLID_110_" gradientUnits="userSpaceOnUse" x1="43.0511" y1="59.1181" x2="158" y2="59.1181">
	<stop  offset="0" style="stop-color:#F15A24"/>
	<stop  offset="1" style="stop-color:#FCEE21"/>
</linearGradient>
<path id="XMLID_19_" class="st1" d="M158-1v120.2C95.1,119.2,43.1,67.5,43.1,4c0-1.6,0.2-3,0.2-5H158z"/>
<linearGradient id="XMLID_111_" gradientUnits="userSpaceOnUse" x1="90.9621" y1="35.1566" x2="158" y2="35.1566">
	<stop  offset="0" style="stop-color:#F15A24"/>
	<stop  offset="1" style="stop-color:#FCEE21"/>
</linearGradient>
<path id="XMLID_14_" class="st2" d="M158-1v72.3c-36.7,0-67-30.3-67-67.3c0-1.6,0.2-3,0.3-5H158z"/>
</svg>
