<?xml version="1.0" encoding="utf-8"?>
<!-- Generator: Adobe Illustrator 19.0.0, SVG Export Plug-In . SVG Version: 6.00 Build 0)  -->
<svg version="1.1" id="Layer_1" xmlns="http://www.w3.org/2000/svg" xmlns:xlink="http://www.w3.org/1999/xlink" x="0px" y="0px"
	 viewBox="0 0 583.1 561" style="enable-background:new 0 0 583.1 561;" xml:space="preserve">
<style type="text/css">
	.st0{opacity:0.15;fill:#FFFF00;}
	.st1{opacity:0.15;}
	.st2{fill:#FF0000;}
	.st3{opacity:0.15;fill:#FF0000;}
</style>
<path id="XMLID_143_" class="st0" d="M583,0v559H17.4c0.1-1,0.2-0.5,0.2-0.6c31.5-47.4,10.5-140.2,0-195.7
	c-10.5-55.5,60-102.1,70.5-195.1C98.6,74.7,20.6,34.1,4.4,0H583z"/>
<g id="XMLID_140_" class="st1">
	<path id="XMLID_142_" class="st2" d="M532.1,215.9L512,195.8c-1.3-1.3-1.3-3.5,0-4.9v0c1.3-1.3,3.5-1.3,4.9,0L537,211
		c1.3,1.3,1.3,3.5,0,4.9l0,0C535.7,217.3,533.5,217.3,532.1,215.9z"/>
	<path id="XMLID_141_" class="st2" d="M512,211l20.1-20.1c1.3-1.3,3.5-1.3,4.9,0v0c1.3,1.3,1.3,3.5,0,4.9l-20.1,20.1
		c-1.3,1.3-3.5,1.3-4.9,0l0,0C510.7,214.6,510.7,212.4,512,211z"/>
</g>
<g id="XMLID_137_" class="st1">
	<path id="XMLID_139_" class="st2" d="M327,229.4l-20.1-20.1c-1.3-1.3-1.3-3.5,0-4.9l0,0c1.3-1.3,3.5-1.3,4.9,0l20.1,20.1
		c1.3,1.3,1.3,3.5,0,4.9l0,0C330.5,230.8,328.3,230.8,327,229.4z"/>
	<path id="XMLID_138_" class="st2" d="M306.9,224.6l20.1-20.1c1.3-1.3,3.5-1.3,4.9,0l0,0c1.3,1.3,1.3,3.5,0,4.9l-20.1,20.1
		c-1.3,1.3-3.5,1.3-4.9,0l0,0C305.5,228.1,305.5,225.9,306.9,224.6z"/>
</g>
<g id="XMLID_134_" class="st1">
	<path id="XMLID_136_" class="st2" d="M95.4,408l-24.1-24.9c-1.6-1.7-1.6-4.3,0.1-6h0c1.7-1.6,4.3-1.6,6,0.1l24.1,24.9
		c1.6,1.7,1.6,4.3-0.1,6h0C99.7,409.7,97,409.6,95.4,408z"/>
	<path id="XMLID_135_" class="st2" d="M71,401.6l24.9-24.1c1.7-1.6,4.3-1.6,6,0.1h0c1.6,1.7,1.6,4.3-0.1,6l-24.9,24.1
		c-1.7,1.6-4.3,1.6-6-0.1h0C69.3,405.9,69.3,403.3,71,401.6z"/>
</g>
<circle id="XMLID_133_" class="st3" cx="343.6" cy="35.4" r="10.2"/>
<circle id="XMLID_132_" class="st3" cx="217.1" cy="205.9" r="12.7"/>
<circle id="XMLID_131_" class="st3" cx="499.1" cy="142.9" r="12.7"/>
</svg>
