<?xml version="1.0" encoding="utf-8"?>
<!-- Generator: Adobe Illustrator 19.0.0, SVG Export Plug-In . SVG Version: 6.00 Build 0)  -->
<svg version="1.1" id="Layer_1" xmlns="http://www.w3.org/2000/svg" xmlns:xlink="http://www.w3.org/1999/xlink" x="0px" y="0px"
	 viewBox="0 0 409 225" style="enable-background:new 0 0 409 225;" xml:space="preserve">
<style type="text/css">
	.st0{fill:#F15A24;}
	.st1{fill:#F7931E;}
	.st2{fill:none;stroke:#F7931E;stroke-width:3;stroke-miterlimit:10;}
	.st3{fill:none;stroke:#F7931E;stroke-miterlimit:10;}
</style>
<path id="XMLID_124_" class="st0" d="M97.4,59l-4.6-2l2.1-4.8c0.5-1,0-2.2-1-2.7c-1-0.5-2.2,0-2.7,1l-2.1,4.8l-4.6-2
	c-1-0.5-2.2,0-2.7,1c-0.5,1,0,2.2,1,2.7l4.6,2l-1.9,4.4c-0.5,1,0,2.2,1,2.7c1,0.5,2.2,0,2.7-1l1.9-4.4l4.6,2c1,0.5,2.2,0,2.7-1
	C98.9,60.7,98.5,59.5,97.4,59z"/>
<path id="XMLID_123_" class="st1" d="M402.2,28.8l-3-1.3l1.4-3.1c0.3-0.7,0-1.5-0.7-1.8s-1.5,0-1.8,0.7l-1.4,3.1l-3-1.3
	c-0.7-0.3-1.5,0-1.8,0.7c-0.3,0.7,0,1.5,0.7,1.8l3,1.3l-1.3,2.8c-0.3,0.7,0,1.5,0.7,1.8s1.5,0,1.8-0.7l1.3-2.8l3,1.3
	c0.7,0.3,1.5,0,1.8-0.7C403.2,29.9,402.9,29.1,402.2,28.8z"/>
<path id="XMLID_122_" class="st0" d="M298.2,212.6l-2.2-1l1-2.3c0.2-0.5,0-1.1-0.5-1.3c-0.5-0.2-1.1,0-1.3,0.5l-1,2.3l-2.2-1
	c-0.5-0.2-1.1,0-1.3,0.5c-0.2,0.5,0,1.1,0.5,1.3l2.2,1l-0.9,2.1c-0.2,0.5,0,1.1,0.5,1.3c0.5,0.2,1.1,0,1.3-0.5l0.9-2.1l2.2,1
	c0.5,0.2,1.1,0,1.3-0.5C298.9,213.4,298.7,212.8,298.2,212.6z"/>
<path id="XMLID_121_" class="st1" d="M27.9,138.4l-1.1-2.9l3.1-1.2c0.7-0.3,1-1,0.7-1.7c-0.3-0.7-1-1-1.7-0.7l-3.1,1.2l-1.1-2.9
	c-0.3-0.7-1-1-1.7-0.7c-0.7,0.3-1,1-0.7,1.7l1.1,2.9l-2.8,1.1c-0.7,0.3-1,1-0.7,1.7c0.3,0.7,1,1,1.7,0.7l2.8-1.1l1.1,2.9
	c0.3,0.7,1,1,1.7,0.7C27.8,139.8,28.2,139.1,27.9,138.4z"/>
<path id="XMLID_120_" class="st1" d="M12.1,21.7l-1-2.7l2.8-1.1c0.6-0.2,0.9-0.9,0.7-1.5c-0.2-0.6-0.9-0.9-1.5-0.7l-2.8,1.1l-1-2.7
	c-0.2-0.6-0.9-0.9-1.5-0.7C7,13.6,6.7,14.3,7,14.9l1,2.7l-2.6,1c-0.6,0.2-0.9,0.9-0.7,1.5C5,20.7,5.7,21,6.3,20.8l2.6-1l1,2.7
	c0.2,0.6,0.9,0.9,1.5,0.7C12.1,23,12.4,22.3,12.1,21.7z"/>
<polygon id="XMLID_67_" class="st2" points="395,98.7 384.5,92.5 374.1,86.3 384.7,80.4 395.3,74.4 395.1,86.6 "/>
<polygon id="XMLID_19_" class="st3" points="214.4,192.4 214.4,186.3 214.3,180.3 219.6,183.3 224.8,186.2 219.6,189.3 "/>
</svg>
